<?xml version="1.0" encoding="UTF-8" standalone="no"?>
<svg
   width="55.5625mm"
   height="55.5625mm"
   id="sqllite"
   version="1.1"
   sodipodi:docname="sqllite.svg"
   xml:space="preserve"
   inkscape:version="1.4.2 (ebf0e940, 2025-05-08)"
   xmlns:inkscape="http://www.inkscape.org/namespaces/inkscape"
   xmlns:sodipodi="http://sodipodi.sourceforge.net/DTD/sodipodi-0.dtd"
   xmlns="http://www.w3.org/2000/svg"
   xmlns:svg="http://www.w3.org/2000/svg"><defs
     id="defs1"><style
       id="style1-08">.cls-1{fill:#ea4335;}.cls-2{fill:#4285f4;}.cls-3{fill:#34a853;}.cls-4{fill:#fbbc05;}.cls-5{fill:#5f6368;}</style><style
       id="style1-3">
      .cls-1 {
        fill: #1d63ed;
        stroke-width: 0px;
      }
    </style><style
       id="style1-4">
      .cls-1 {
        fill: #fff;
        stroke-width: 0px;
      }
    </style><style
       id="style1-087">
      .cls-1 {
        fill: #1d63ed;
        stroke-width: 0px;
      }
    </style><style
       id="style1-6">
      .cls-1 {
        fill: #fff;
        stroke-width: 0px;
      }
    </style><style
       id="style1-1">.cls-1{fill:#ea4335;}.cls-2{fill:#4285f4;}.cls-3{fill:#34a853;}.cls-4{fill:#fbbc05;}.cls-5{fill:#5f6368;}</style><style
       id="style1-5">.cls-1{fill:#ea4335;}.cls-2{fill:#4285f4;}.cls-3{fill:#34a853;}.cls-4{fill:#fbbc05;}.cls-5{fill:#5f6368;}</style><style
       id="style1-7">
      .cls-1 {
        fill: #fff;
        stroke-width: 0px;
      }
    </style><style
       id="style1-56">.cls-1{fill:#ea4335;}.cls-2{fill:#4285f4;}.cls-3{fill:#34a853;}.cls-4{fill:#fbbc05;}.cls-5{fill:#5f6368;}</style></defs><sodipodi:namedview
     id="namedview1"
     pagecolor="#ffffff"
     bordercolor="#000000"
     borderopacity="0.25"
     inkscape:showpageshadow="2"
     inkscape:pageopacity="0.0"
     inkscape:pagecheckerboard="0"
     inkscape:deskcolor="#d1d1d1"
     showgrid="false"
     inkscape:zoom="0.6"
     inkscape:cx="541.66667"
     inkscape:cy="1415"
     inkscape:window-width="1352"
     inkscape:window-height="745"
     inkscape:window-x="0"
     inkscape:window-y="31"
     inkscape:window-maximized="0"
     inkscape:current-layer="sqllite"
     inkscape:document-units="mm"><inkscape:page
       x="0"
       y="0"
       width="210"
       height="210"
       id="page2"
       margin="0"
       bleed="0" /></sodipodi:namedview><style
     type="text/css"
     id="style1">
	.st0{fill:#FFFFFF;}
	.st1{fill:#4DA925;}
	.st2{fill:#2A3238;}
</style><g
     id="g38"
     transform="translate(-290.9386,-36.999999)"><rect
       style="fill:#252937;fill-opacity:1"
       id="rect11"
       width="210"
       height="210"
       x="290.9386"
       y="37"
       rx="28"
       ry="28" /><g
       id="g6"
       transform="matrix(1.3983051,0,0,1.3983051,291.76487,36.847456)">
	<g
   id="g5">
		<g
   id="g2">
			<g
   id="g1">
				<path
   class="st0"
   d="M 118.9,40.3 81.7,18.2 c -2.2,-1.3 -4.7,-2 -7.2,-2 -2.5,0 -5,0.7 -7.2,2 L 30.1,40.3 c -4.4,2.6 -7.2,7.5 -7.2,12.8 v 44.2 c 0,5.3 2.7,10.1 7.2,12.8 l 37.2,22.1 c 2.2,1.3 4.7,2 7.2,2 2.5,0 5,-0.7 7.2,-2 l 37.2,-22.1 c 4.4,-2.6 7.2,-7.5 7.2,-12.8 V 53 c 0,-5.2 -2.7,-10.1 -7.2,-12.7 z M 68.6,129.8 31.4,107.7 c -3.6,-2.2 -5.9,-6.2 -5.9,-10.5 V 53 c 0,-4.3 2.3,-8.4 5.9,-10.5 L 68.6,20.4 c 1.8,-1.1 3.8,-1.6 5.9,-1.6 2.1,0 4.1,0.6 5.9,1.6 l 37.2,22.1 c 3.1,1.8 5.1,5 5.7,8.5 -1.2,-2.6 -4,-3.4 -7.3,-1.5 L 80.9,71.3 c -4.4,2.6 -7.6,5.4 -7.6,10.7 v 43.4 c 0,3.2 1.3,5.2 3.2,5.8 -0.6,0.1 -1.3,0.2 -2,0.2 -2,0.1 -4.1,-0.5 -5.9,-1.6 z"
   id="path1-0" />
			</g>
		</g>
		<g
   id="g3">
			<path
   class="st1"
   d="m 109.2,101.5 -9.3,5.5 c -0.2,0.1 -0.4,0.3 -0.4,0.6 v 2.4 c 0,0.3 0.2,0.4 0.4,0.3 l 9.4,-5.7 c 0.2,-0.1 0.3,-0.4 0.3,-0.7 v -2.1 c 0,-0.3 -0.2,-0.4 -0.4,-0.3 z"
   id="path2-4" />
		</g>
		<g
   id="g4">
			<path
   class="st2"
   d="m 89.4,81.1 c 0.3,-0.2 0.5,0 0.6,0.4 v 3.2 c 1.3,-0.5 2.5,-0.7 3.6,-0.4 0.2,0.1 0.3,0.4 0.2,0.7 l -0.7,2.8 c -0.1,0.2 -0.2,0.4 -0.3,0.6 -0.1,0.1 -0.1,0.1 -0.2,0.1 -0.1,0 -0.2,0.1 -0.3,0 -0.5,-0.1 -1.6,-0.4 -3.4,0.6 -1.9,1 -2.6,2.6 -2.5,3.8 0,1.5 0.8,1.9 3.3,1.9 3.4,0.1 4.9,1.6 5,5 0,3.4 -1.8,7.1 -4.6,9.3 l 0.1,3.2 c 0,0.4 -0.2,0.8 -0.5,1 l -1.9,1.1 c -0.3,0.2 -0.5,0 -0.6,-0.4 v -3.1 c -1.6,0.7 -3.2,0.8 -4.3,0.4 -0.2,-0.1 -0.3,-0.4 -0.2,-0.7 l 0.7,-2.9 c 0.1,-0.2 0.2,-0.5 0.3,-0.6 0.1,-0.1 0.1,-0.1 0.2,-0.1 0.1,-0.1 0.2,-0.1 0.3,0 1.1,0.4 2.6,0.2 3.9,-0.5 1.8,-0.9 2.9,-2.7 2.9,-4.5 0,-1.6 -0.9,-2.3 -3,-2.3 -2.7,0 -5.2,-0.5 -5.3,-4.5 0,-3.3 1.7,-6.7 4.4,-8.8 v -3.2 c 0,-0.4 0.2,-0.8 0.5,-1 z"
   id="path3" />
		</g>
	</g>
</g></g><style
     id="style1-0"><![CDATA[.B{stroke-linecap:round}.C{stroke-linejoin:round}.D{stroke-linejoin:miter}.E{stroke-width:.716}]]></style></svg>
