<?xml version="1.0" encoding="UTF-8" standalone="no"?>
<svg
   width="55.5625mm"
   height="55.5625mm"
   id="sqllite"
   version="1.1"
   sodipodi:docname="sqllite.svg"
   xml:space="preserve"
   inkscape:version="1.4.2 (ebf0e940, 2025-05-08)"
   xmlns:inkscape="http://www.inkscape.org/namespaces/inkscape"
   xmlns:sodipodi="http://sodipodi.sourceforge.net/DTD/sodipodi-0.dtd"
   xmlns="http://www.w3.org/2000/svg"
   xmlns:svg="http://www.w3.org/2000/svg"><defs
     id="defs1"><style
       id="style1-08">.cls-1{fill:#ea4335;}.cls-2{fill:#4285f4;}.cls-3{fill:#34a853;}.cls-4{fill:#fbbc05;}.cls-5{fill:#5f6368;}</style><style
       id="style1-3">
      .cls-1 {
        fill: #1d63ed;
        stroke-width: 0px;
      }
    </style><style
       id="style1-4">
      .cls-1 {
        fill: #fff;
        stroke-width: 0px;
      }
    </style><style
       id="style1-087">
      .cls-1 {
        fill: #1d63ed;
        stroke-width: 0px;
      }
    </style><style
       id="style1-6">
      .cls-1 {
        fill: #fff;
        stroke-width: 0px;
      }
    </style><style
       id="style1-1">.cls-1{fill:#ea4335;}.cls-2{fill:#4285f4;}.cls-3{fill:#34a853;}.cls-4{fill:#fbbc05;}.cls-5{fill:#5f6368;}</style><style
       id="style1-5">.cls-1{fill:#ea4335;}.cls-2{fill:#4285f4;}.cls-3{fill:#34a853;}.cls-4{fill:#fbbc05;}.cls-5{fill:#5f6368;}</style><style
       id="style1-7">
      .cls-1 {
        fill: #fff;
        stroke-width: 0px;
      }
    </style><style
       id="style1-56">.cls-1{fill:#ea4335;}.cls-2{fill:#4285f4;}.cls-3{fill:#34a853;}.cls-4{fill:#fbbc05;}.cls-5{fill:#5f6368;}</style><style
       id="style6">.st0{fill:none}</style><style
       id="style6-9">.st0{fill:none}</style><style
       id="style6-3">.st0{fill:none}</style><style
       id="style6-4">.st0{fill:none}</style><style
       id="style1-8">
      .st0 {
        fill: #4d6bfe;
      }
    </style></defs><sodipodi:namedview
     id="namedview1"
     pagecolor="#ffffff"
     bordercolor="#000000"
     borderopacity="0.25"
     inkscape:showpageshadow="2"
     inkscape:pageopacity="0.0"
     inkscape:pagecheckerboard="0"
     inkscape:deskcolor="#d1d1d1"
     showgrid="false"
     inkscape:zoom="0.75"
     inkscape:cx="561.33333"
     inkscape:cy="585.33333"
     inkscape:window-width="1352"
     inkscape:window-height="741"
     inkscape:window-x="0"
     inkscape:window-y="31"
     inkscape:window-maximized="0"
     inkscape:current-layer="sqllite"
     inkscape:document-units="mm"><inkscape:page
       x="0"
       y="0"
       width="210"
       height="210"
       id="page2"
       margin="0"
       bleed="0" /></sodipodi:namedview><style
     type="text/css"
     id="style1">
	.st0{fill:#FFFFFF;}
	.st1{fill:#4DA925;}
	.st2{fill:#2A3238;}
</style><style
     id="style1-0"><![CDATA[.B{stroke-linecap:round}.C{stroke-linejoin:round}.D{stroke-linejoin:miter}.E{stroke-width:.716}]]></style><style
     type="text/css"
     id="style1-60">
	.st0{fill:#FFFFFF;}
	.st1{fill:#4DA925;}
	.st2{fill:#2A3238;}
</style><style
     type="text/css"
     id="style1-17">
	.st0{fill:#FFFFFF;}
	.st1{fill:#4DA925;}
	.st2{fill:#2A3238;}
</style><style
     type="text/css"
     id="style1-55">
	.st0{fill:#FFFFFF;}
	.st1{fill:#4DA925;}
	.st2{fill:#2A3238;}
</style><style
     type="text/css"
     id="style1-48">
	.st0{fill:#FFFFFF;}
	.st1{fill:#4DA925;}
	.st2{fill:#2A3238;}
</style><g
     id="g11"
     transform="translate(-1889.7638,-278.98353)"><rect
       style="fill:#4d6bfe;fill-opacity:1"
       id="rect1"
       width="210"
       height="210"
       x="1889.7638"
       y="278.98355"
       rx="28"
       ry="28" /><path
       class="st0"
       d="m 2075.5323,333.46304 c -1.7477,-0.85637 -2.5004,0.77564 -3.5224,1.60471 -0.3496,0.26745 -0.6453,0.61505 -0.9412,0.93593 -2.5544,2.72795 -5.539,4.52055 -9.438,4.30623 -5.7004,-0.32117 -10.5674,1.47142 -14.8698,5.83138 -0.9142,-5.37633 -3.9525,-8.58663 -8.5775,-10.64579 -2.4197,-1.0701 -4.8667,-2.1402 -6.561,-4.46741 -1.1831,-1.65784 -1.5057,-3.50358 -2.0973,-5.3226 -0.3767,-1.09652 -0.753,-2.22035 -2.0169,-2.40765 -1.3713,-0.21373 -1.9092,0.93593 -2.447,1.89946 -2.151,3.93221 -2.9845,8.26545 -2.9041,12.65212 0.1882,9.87045 4.3562,17.73398 12.6378,23.32463 0.9412,0.64206 1.1831,1.28353 0.8874,2.22034 -0.5648,1.92588 -1.2371,3.79804 -1.8284,5.72393 -0.3766,1.23068 -0.9415,1.49814 -2.2588,0.96265 -4.5443,-1.89859 -8.4703,-4.70756 -11.939,-8.10428 -5.8886,-5.6975 -11.2127,-11.98334 -17.854,-16.90521 -1.5595,-1.15024 -3.1193,-2.21975 -4.7328,-3.23671 -6.7762,-6.57972 0.8874,-11.98335 2.6621,-12.62482 1.8552,-0.66877 0.6453,-2.96956 -5.351,-2.94226 -5.9964,0.0264 -11.4817,2.03275 -18.4727,4.70756 -1.0216,0.40132 -2.0976,0.69519 -3.2,0.93593 -6.3457,-1.20338 -12.9337,-1.47142 -19.8172,-0.6952 -12.9607,1.44412 -23.3126,7.56967 -30.9222,18.02845 -9.1421,12.57168 -11.2931,26.85492 -8.658,41.7541 2.7697,15.70095 10.7823,28.70066 23.0977,38.86557 12.7725,10.53835 27.4809,15.70095 44.2595,14.71129 10.1911,-0.58833 21.5382,-1.95231 34.3374,-12.7854 3.2265,1.605 6.6147,2.24647 12.2347,2.72794 4.3291,0.40133 8.4971,-0.21372 11.7235,-0.88221 5.0552,-1.07009 4.7058,-5.75123 2.8774,-6.60701 -14.8158,-6.90089 -11.5627,-4.0925 -14.5202,-6.36628 7.5289,-8.90692 18.8763,-18.16232 23.3129,-48.14739 0.3494,-2.38035 0.054,-3.87849 0,-5.80437 -0.027,-1.17667 0.2419,-1.63113 1.5865,-1.7653 3.7106,-0.42804 7.3137,-1.44412 10.6211,-3.26314 9.5995,-5.24245 13.4712,-13.8555 14.3854,-24.18041 0.1348,-1.57828 -0.027,-3.2103 -1.6939,-4.03878 z m -83.6521,92.92332 c -14.3587,-11.28727 -21.3227,-15.00575 -24.2001,-14.84516 -2.6889,0.16058 -2.2047,3.23671 -1.6135,5.24304 0.6186,1.97902 1.4254,3.34358 2.5545,5.08187 0.7797,1.15024 1.3178,2.86181 -0.7795,4.14623 -4.625,2.86211 -12.665,-0.96324 -13.0417,-1.15025 -9.357,-5.51049 -17.1817,-12.78628 -22.6943,-22.736 -5.3241,-9.57657 -8.416,-19.84747 -8.9272,-30.81444 -0.1344,-2.64779 0.6453,-3.58461 3.2805,-4.06549 3.4686,-0.64206 7.045,-0.77623 10.5137,-0.26804 14.6549,2.1402 27.1312,8.69349 37.5908,19.07183 5.9694,5.91123 10.4867,12.97329 15.1388,19.87418 4.9474,7.32864 10.2714,14.31055 17.0476,20.03448 2.3929,2.00603 4.3021,3.53059 6.1305,4.65442 -5.512,0.61505 -14.7084,0.74921 -21.0004,-4.22667 z m 6.8836,-44.26833 c 0,-1.17696 0.9412,-2.11289 2.1246,-2.11289 0.269,0 0.5109,0.0528 0.7261,0.13299 0.2959,0.10745 0.5648,0.26804 0.7797,0.50819 0.3767,0.3749 0.5916,0.90951 0.5916,1.47142 0,1.17696 -0.941,2.11289 -2.1238,2.11289 -1.1828,0 -2.0976,-0.93593 -2.0976,-2.11289 z m 21.377,10.96697 c -1.3713,0.56192 -2.7426,1.0428 -4.0602,1.09653 -2.0436,0.10686 -4.2754,-0.7225 -5.4852,-1.73888 -1.8822,-1.57828 -3.2268,-2.46049 -3.7913,-5.21574 -0.2422,-1.17696 -0.1078,-2.99598 0.1077,-4.03878 0.4838,-2.24706 -0.054,-3.69118 -1.6402,-5.0023 -1.2909,-1.0701 -2.9311,-1.36398 -4.7328,-1.36398 -0.6723,0 -1.2903,-0.29446 -1.7477,-0.53519 -0.753,-0.37432 -1.371,-1.31054 -0.7798,-2.46079 0.1882,-0.37402 1.1027,-1.28382 1.3179,-1.44412 2.447,-1.39127 5.2704,-0.93622 7.8785,0.10686 2.4203,0.98966 4.2487,2.80868 6.8836,5.37633 2.6889,3.10255 3.1727,3.95922 4.7055,6.28584 1.2104,1.81902 2.3128,3.69118 3.0656,5.83138 0.4571,1.33755 -0.1345,2.43407 -1.721,3.10284 z"
       id="path1-65"
       style="fill:#ffffff;fill-opacity:1;stroke-width:2.9358" /></g></svg>
