<?xml version="1.0" encoding="UTF-8" standalone="no"?>
<svg
   width="55.5625mm"
   height="55.5625mm"
   id="sqllite"
   version="1.1"
   sodipodi:docname="sqllite.svg"
   xml:space="preserve"
   inkscape:version="1.4.2 (ebf0e940, 2025-05-08)"
   xmlns:inkscape="http://www.inkscape.org/namespaces/inkscape"
   xmlns:sodipodi="http://sodipodi.sourceforge.net/DTD/sodipodi-0.dtd"
   xmlns="http://www.w3.org/2000/svg"
   xmlns:svg="http://www.w3.org/2000/svg"><defs
     id="defs1"><style
       id="style1-08">.cls-1{fill:#ea4335;}.cls-2{fill:#4285f4;}.cls-3{fill:#34a853;}.cls-4{fill:#fbbc05;}.cls-5{fill:#5f6368;}</style><style
       id="style1-3">
      .cls-1 {
        fill: #1d63ed;
        stroke-width: 0px;
      }
    </style><style
       id="style1-4">
      .cls-1 {
        fill: #fff;
        stroke-width: 0px;
      }
    </style><style
       id="style1-087">
      .cls-1 {
        fill: #1d63ed;
        stroke-width: 0px;
      }
    </style><style
       id="style1-6">
      .cls-1 {
        fill: #fff;
        stroke-width: 0px;
      }
    </style><style
       id="style1-1">.cls-1{fill:#ea4335;}.cls-2{fill:#4285f4;}.cls-3{fill:#34a853;}.cls-4{fill:#fbbc05;}.cls-5{fill:#5f6368;}</style><style
       id="style1-5">.cls-1{fill:#ea4335;}.cls-2{fill:#4285f4;}.cls-3{fill:#34a853;}.cls-4{fill:#fbbc05;}.cls-5{fill:#5f6368;}</style><style
       id="style1-7">
      .cls-1 {
        fill: #fff;
        stroke-width: 0px;
      }
    </style><style
       id="style1-56">.cls-1{fill:#ea4335;}.cls-2{fill:#4285f4;}.cls-3{fill:#34a853;}.cls-4{fill:#fbbc05;}.cls-5{fill:#5f6368;}</style></defs><sodipodi:namedview
     id="namedview1"
     pagecolor="#ffffff"
     bordercolor="#000000"
     borderopacity="0.25"
     inkscape:showpageshadow="2"
     inkscape:pageopacity="0.0"
     inkscape:pagecheckerboard="0"
     inkscape:deskcolor="#d1d1d1"
     showgrid="false"
     inkscape:zoom="0.6"
     inkscape:cx="541.66667"
     inkscape:cy="1415"
     inkscape:window-width="1352"
     inkscape:window-height="745"
     inkscape:window-x="0"
     inkscape:window-y="31"
     inkscape:window-maximized="0"
     inkscape:current-layer="sqllite"
     inkscape:document-units="mm"><inkscape:page
       x="0"
       y="0"
       width="210"
       height="210"
       id="page2"
       margin="0"
       bleed="0" /></sodipodi:namedview><style
     type="text/css"
     id="style1">
	.st0{fill:#FFFFFF;}
	.st1{fill:#4DA925;}
	.st2{fill:#2A3238;}
</style><style
     id="style1-0"><![CDATA[.B{stroke-linecap:round}.C{stroke-linejoin:round}.D{stroke-linejoin:miter}.E{stroke-width:.716}]]></style><g
     id="g102"
     transform="translate(-291.02362,-510.23621)"><rect
       style="fill:#1c3c3c;fill-opacity:1"
       id="rect59"
       width="210"
       height="210"
       x="291.02362"
       y="510.23621"
       rx="28"
       ry="28" /><g
       style="fill:#ffffff;fill-opacity:1"
       id="g63"
       transform="matrix(2.6519938,0,0,2.6519938,312.87403,572.422)"><path
         fill-rule="evenodd"
         clip-rule="evenodd"
         d="m 16.0556,0.278809 h 30.596 c 8.7182,0 15.8105,7.117201 15.8105,15.865291 0,8.7482 -7.0923,15.8654 -15.8105,15.8654 H 16.0556 C 7.33738,32.0095 0.245117,24.8923 0.245117,16.1441 0.245117,7.39601 7.33738,0.278809 16.0556,0.278809 Z M 30.103,24.8723 c 0.384,0.404 0.9526,0.384 1.4563,0.2793 l 0.005,0.0025 c 0.2338,-0.1902 -0.0985,-0.431 -0.4159,-0.6611 -0.1903,-0.1379 -0.3753,-0.2719 -0.4295,-0.3888 0.1757,-0.2143 -0.3439,-0.7007 -0.7485,-1.0794 -0.1698,-0.159 -0.3193,-0.299 -0.3886,-0.3919 -0.2879,-0.3133 -0.4036,-0.7086 -0.52,-1.1063 -0.0772,-0.2639 -0.1547,-0.5288 -0.283,-0.7715 C 27.9883,18.9197 27.083,17.0992 25.8137,15.5456 24.9979,14.513 24.0669,13.5883 23.1356,12.6633 22.5352,12.0669 21.9347,11.4705 21.3648,10.8449 20.7784,10.2395 20.4255,9.49372 20.072,8.74672 19.7761,8.12134 19.4797,7.49509 19.0456,6.94963 17.7314,5.00449 13.5818,4.47332 12.9733,7.22145 12.9758,7.30624 12.9484,7.3611 12.8735,7.41596 12.5369,7.66285 12.2376,7.94215 11.9858,8.2813 c -0.616,0.86035 -0.7108,2.3192 0.0573,3.0923 0.0011,-0.0166 0.0022,-0.0331 0.0033,-0.0496 0.0257,-0.3904 0.0497,-0.7553 0.3583,-1.0352 0.5935,0.5112 1.4938,0.6932 2.1821,0.3117 0.8298,1.1904 1.0942,2.6294 1.3594,4.0733 0.2209,1.2029 0.4425,2.4091 0.9922,3.4778 0.0113,0.0189 0.0227,0.0378 0.0341,0.0568 0.323,0.5379 0.6513,1.0844 1.0656,1.5542 0.1505,0.2333 0.4596,0.4851 0.7681,0.7365 0.407,0.3318 0.8132,0.6627 0.8529,0.9493 0.0018,0.1247 0.0012,0.251 7e-4,0.3781 -0.0032,0.7526 -0.0066,1.5319 0.4756,2.1506 0.2668,0.5411 -0.3865,1.0847 -0.9127,1.0174 -0.2885,0.04 -0.6037,-0.036 -0.9167,-0.1115 -0.4282,-0.1033 -0.8523,-0.2056 -1.198,-0.0082 -0.097,0.105 -0.2364,0.1087 -0.3764,0.1124 -0.1659,0.0043 -0.3329,0.0087 -0.4316,0.1819 -0.0203,0.0515 -0.0677,0.1096 -0.117,0.17 -0.1082,0.1326 -0.2255,0.2764 -0.085,0.3861 0.0126,-0.0096 0.0251,-0.0191 0.0376,-0.0287 0.2128,-0.1624 0.4157,-0.3173 0.703,-0.2207 -0.0382,0.2123 0.0989,0.2692 0.2359,0.326 0.0239,0.0099 0.0479,0.0199 0.0709,0.0306 -0.0015,0.0493 -0.0112,0.099 -0.0209,0.1484 -0.023,0.1178 -0.0456,0.2334 0.0458,0.3354 0.0434,-0.0441 0.0818,-0.0937 0.1202,-0.1434 0.0941,-0.1216 0.1886,-0.2438 0.3586,-0.288 0.3739,0.4992 0.7505,0.2919 1.223,0.0317 0.533,-0.2935 1.188,-0.6542 2.0987,-0.1439 -0.3491,-0.0175 -0.6609,0.0249 -0.8953,0.3142 -0.0573,0.0648 -0.1072,0.1396 -0.005,0.2244 0.5389,-0.3491 0.7631,-0.2236 0.9741,-0.1055 0.1523,0.0852 0.2977,0.1666 0.5496,0.0631 0.0596,-0.0311 0.1191,-0.0632 0.1787,-0.0953 0.4046,-0.2183 0.8148,-0.4396 1.2951,-0.3635 -0.3587,0.1034 -0.4864,0.3308 -0.6257,0.5791 -0.0689,0.1227 -0.1406,0.2505 -0.2446,0.371 -0.0548,0.0549 -0.0798,0.1197 -0.0174,0.212 0.7512,-0.0625 1.035,-0.253 1.4185,-0.5103 0.183,-0.1228 0.3887,-0.2608 0.6787,-0.4074 0.3206,-0.1974 0.6412,-0.0712 0.9518,0.0512 0.3371,0.1327 0.6624,0.2608 0.9634,-0.0338 0.0951,-0.0896 0.2144,-0.0907 0.3331,-0.0918 0.0432,-4e-4 0.0864,-8e-4 0.1283,-0.0054 -0.0937,-0.5019 -0.6222,-0.496 -1.1586,-0.49 -0.6205,0.0069 -1.2517,0.014 -1.2329,-0.7644 0.5765,-0.3937 0.5818,-1.0771 0.5868,-1.723 0.0013,-0.1559 0.0024,-0.3096 0.0117,-0.4566 0.424,0.2365 0.8725,0.4213 1.3183,0.6049 0.4193,0.1728 0.8362,0.3445 1.2278,0.5572 0.409,0.6584 1.0474,1.5312 1.8978,1.4739 0.0224,-0.0674 0.0424,-0.1247 0.0673,-0.1921 0.049,0.0086 0.1008,0.0217 0.1534,0.035 0.2232,0.0566 0.4622,0.1171 0.5773,-0.1472 z m 16.6672,-7.4816 c 0.4923,0.4912 1.1602,0.7672 1.8565,0.7672 0.6963,0 1.3642,-0.276 1.8565,-0.7672 0.4924,-0.4912 0.7691,-1.1574 0.7691,-1.852 0,-0.6947 -0.2767,-1.3609 -0.7691,-1.8521 -0.4923,-0.4912 -1.1602,-0.7672 -1.8565,-0.7672 -0.3261,0 -0.646,0.0606 -0.9445,0.1754 l -1.5049,-2.1967 -1.0488,0.7186 1.5127,2.2081 c -0.4115,0.4744 -0.6401,1.0824 -0.6401,1.7139 0,0.6946 0.2767,1.3608 0.7691,1.852 z m -4.7115,-7.1138 c 0.3684,0.1821 0.7745,0.2753 1.1856,0.2721 0.561,-0.0043 1.1058,-0.1877 1.5546,-0.5234 C 45.2478,9.68993 45.577,9.21968 45.7385,8.68375 45.9,8.14782 45.8851,7.57439 45.6961,7.04749 45.5072,6.52059 45.154,6.06792 44.6884,5.75581 44.3471,5.52707 43.9568,5.38147 43.5488,5.33074 43.1409,5.28 42.7266,5.32556 42.3396,5.46372 41.9525,5.60189 41.6033,5.82881 41.3202,6.12621 41.0371,6.42362 40.8279,6.78319 40.7096,7.17597 40.5913,7.56875 40.567,7.98376 40.6389,8.38759 c 0.0718,0.40383 0.2377,0.78518 0.4844,1.11334 0.2466,0.32817 0.567,0.59397 0.9354,0.77597 z m 0,15.2095 c 0.3684,0.182 0.7745,0.2752 1.1856,0.2721 0.561,-0.0043 1.1058,-0.1878 1.5546,-0.5234 0.4489,-0.3357 0.7781,-0.806 0.9396,-1.3419 0.1615,-0.5359 0.1466,-1.1094 -0.0424,-1.6363 -0.1889,-0.5269 -0.5421,-0.9795 -1.0077,-1.2916 -0.3413,-0.2288 -0.7316,-0.3744 -1.1396,-0.4251 -0.4079,-0.0507 -0.8222,-0.0052 -1.2092,0.133 -0.3871,0.1382 -0.7363,0.3651 -1.0194,0.6625 -0.2831,0.2974 -0.4923,0.6569 -0.6106,1.0497 -0.1183,0.3928 -0.1426,0.8078 -0.0707,1.2116 0.0718,0.4039 0.2377,0.7852 0.4844,1.1134 0.2466,0.3282 0.567,0.594 0.9354,0.776 z m 2.4138,-9.2965 V 14.8877 H 40.454 c -0.1011,-0.3949 -0.2939,-0.7606 -0.5629,-1.0678 l 1.5118,-2.2398 -1.0995,-0.7292 -1.5118,2.2397 c -0.2771,-0.1001 -0.5692,-0.1529 -0.8639,-0.1562 -0.6944,0 -1.3602,0.2744 -1.8512,0.7628 -0.4909,0.4884 -0.7668,1.1508 -0.7668,1.8416 0,0.6907 0.2759,1.3531 0.7668,1.8416 0.491,0.4884 1.1568,0.7628 1.8512,0.7628 0.2947,-0.0034 0.5868,-0.0562 0.8639,-0.1563 l 1.5118,2.2398 1.0865,-0.7293 -1.4988,-2.2397 c 0.269,-0.3073 0.4618,-0.673 0.5629,-1.0678 z"
         fill="currentColor"
         id="path63"
         style="fill:#ffffff;fill-opacity:1" /></g></g></svg>
