<?xml version="1.0" encoding="UTF-8" standalone="no"?>
<svg
   width="55.5625mm"
   height="55.5625mm"
   id="sqllite"
   version="1.1"
   sodipodi:docname="sqllite.svg"
   xml:space="preserve"
   inkscape:version="1.4.2 (ebf0e940, 2025-05-08)"
   xmlns:inkscape="http://www.inkscape.org/namespaces/inkscape"
   xmlns:sodipodi="http://sodipodi.sourceforge.net/DTD/sodipodi-0.dtd"
   xmlns="http://www.w3.org/2000/svg"
   xmlns:svg="http://www.w3.org/2000/svg"><defs
     id="defs1"><style
       id="style1-08">.cls-1{fill:#ea4335;}.cls-2{fill:#4285f4;}.cls-3{fill:#34a853;}.cls-4{fill:#fbbc05;}.cls-5{fill:#5f6368;}</style><style
       id="style1-3">
      .cls-1 {
        fill: #1d63ed;
        stroke-width: 0px;
      }
    </style><style
       id="style1-4">
      .cls-1 {
        fill: #fff;
        stroke-width: 0px;
      }
    </style><style
       id="style1-087">
      .cls-1 {
        fill: #1d63ed;
        stroke-width: 0px;
      }
    </style><style
       id="style1-6">
      .cls-1 {
        fill: #fff;
        stroke-width: 0px;
      }
    </style><style
       id="style1-1">.cls-1{fill:#ea4335;}.cls-2{fill:#4285f4;}.cls-3{fill:#34a853;}.cls-4{fill:#fbbc05;}.cls-5{fill:#5f6368;}</style><style
       id="style1-5">.cls-1{fill:#ea4335;}.cls-2{fill:#4285f4;}.cls-3{fill:#34a853;}.cls-4{fill:#fbbc05;}.cls-5{fill:#5f6368;}</style><style
       id="style1-7">
      .cls-1 {
        fill: #fff;
        stroke-width: 0px;
      }
    </style><style
       id="style1-56">.cls-1{fill:#ea4335;}.cls-2{fill:#4285f4;}.cls-3{fill:#34a853;}.cls-4{fill:#fbbc05;}.cls-5{fill:#5f6368;}</style><clipPath
       id="a-4"><rect
         width="1609.7"
         height="250"
         fill="CurrentColor"
         id="rect11-1"
         x="0"
         y="0" /></clipPath></defs><sodipodi:namedview
     id="namedview1"
     pagecolor="#ffffff"
     bordercolor="#000000"
     borderopacity="0.25"
     inkscape:showpageshadow="2"
     inkscape:pageopacity="0.0"
     inkscape:pagecheckerboard="0"
     inkscape:deskcolor="#d1d1d1"
     showgrid="false"
     inkscape:zoom="0.6"
     inkscape:cx="541.66667"
     inkscape:cy="1415"
     inkscape:window-width="1352"
     inkscape:window-height="745"
     inkscape:window-x="0"
     inkscape:window-y="31"
     inkscape:window-maximized="0"
     inkscape:current-layer="sqllite"
     inkscape:document-units="mm"><inkscape:page
       x="0"
       y="0"
       width="210"
       height="210"
       id="page2"
       margin="0"
       bleed="0" /></sodipodi:namedview><style
     type="text/css"
     id="style1">
	.st0{fill:#FFFFFF;}
	.st1{fill:#4DA925;}
	.st2{fill:#2A3238;}
</style><style
     id="style1-0"><![CDATA[.B{stroke-linecap:round}.C{stroke-linejoin:round}.D{stroke-linejoin:miter}.E{stroke-width:.716}]]></style><g
     id="g103"
     transform="translate(-555.59058,-510.23621)"><rect
       style="fill:#1c3c3c;fill-opacity:1"
       id="rect60"
       width="210"
       height="210"
       x="555.59058"
       y="510.23621"
       rx="28"
       ry="28" /><g
       style="fill:#ffffff;fill-opacity:1"
       id="g65"
       transform="matrix(0.33543211,0,0,0.33543211,578.03401,573.3072)"><g
         clip-path="url(#a-4)"
         fill="CurrentColor"
         id="g64"
         style="fill:#ffffff;fill-opacity:1"><path
           d="m 288.95,191.81 c -1.37,2.28 -5.49,2.43 -9,0.32 -1.8,-1.08 -3.19,-2.57 -3.91,-4.19 -0.66,-1.47 -0.67,-2.86 -0.04,-3.91 0.72,-1.2 2.21,-1.81 3.97,-1.81 1.58,0 3.38,0.49 5.04,1.49 3.51,2.11 5.32,5.82 3.95,8.1 z M 492.07,125 c 0,68.92 -56.08,125 -125,125 H 125.17 C 56.25,250 0.17,193.93 0.17,125 0.17,56.07 56.25,0 125.17,0 h 241.9 c 68.93,0 125,56.08 125,125 z m -251,62.69 c 1.97,-2.39 -7.13,-9.12 -8.99,-11.59 -3.78,-4.1 -3.8,-10 -6.35,-14.79 -6.24,-14.46 -13.41,-28.81 -23.44,-41.05 -10.6,-13.39 -23.68,-24.47 -35.17,-37.04 -8.53,-8.77 -10.81,-21.26 -18.34,-30.69 -10.38,-15.33 -43.2,-19.51 -48.01,2.14 0.02,0.68 -0.19,1.11 -0.7801,1.54 -2.66,1.93 -5.03,4.14 -7.02,6.81 -4.87,6.78 -5.62,18.28 0.46,24.37 0.2,-3.21 0.31,-6.24 2.85,-8.54 4.7001,4.04 11.8,5.46 17.25,2.45 12.04,17.19 9.04,40.97 18.6,59.49 2.64,4.38 5.3,8.85 8.69,12.69 2.75,4.28 12.25,9.33 12.81,13.29 0.1,6.8 -0.7,14.23 3.76,19.92 2.1,4.26 -3.06,8.54 -7.22,8.01 -5.4,0.74 -11.99,-3.63 -16.72,-0.94 -1.67,1.81 -4.94,-0.19 -6.38,2.32 -0.5,1.3 -3.2,3.13 -1.59,4.38 1.79,-1.36 3.45,-2.78 5.86,-1.97 -0.36,1.96 1.19,2.24 2.42,2.81 -0.04,1.33 -0.82,2.69 0.2,3.82 1.19,-1.2 1.9,-2.9 3.79,-3.4 6.28,8.37 12.67,-8.47 26.26,-0.89 -2.76,-0.13 -5.21,0.21 -7.07,2.48 -0.46,0.51 -0.85,1.11 -0.04,1.77 7.33,-4.73 7.29,1.62 12.05,-0.33 3.66,-1.91 7.3,-4.3 11.65,-3.62 -4.23,1.22 -4.4,4.62 -6.88,7.49 -0.42,0.44 -0.62,0.94 -0.13,1.67 8.78,-0.74 9.5,-3.66 16.59,-7.24 5.29,-3.23 10.56,4.6 15.14,0.14 1.01,-0.97 2.39,-0.64 3.64,-0.77 -1.6,-8.53 -19.19,1.56 -18.91,-9.88 5.66,-3.85 4.36,-11.22 4.74,-17.17 6.51,3.61 13.75,5.71 20.13,9.16 3.22,5.2 8.27,12.07 15,11.62 0.18,-0.52 0.34,-0.98 0.53,-1.51 2.04,0.35 4.66,1.7 5.78,-0.88 3.05,3.19 7.53,3.03 11.52,2.21 2.95,-2.4 -5.55,-5.82 -6.69,-8.29 l 0.01,0.01 z m 91.25,-40.31 -13.38,-18.06 c -11.68,13.36 -19.48,19.87 -19.62,19.99 -0.07,0.07 -7.52,7.32 -14.31,13.54 -6.66,6.1 -11.92,10.93 -14.6,16.21 -0.74,1.46 -2.35,6.84 -0.09,12.22 1.74,4.16 5.29,7.12 10.56,8.8 1.58,0.5 3.09,0.72 4.53,0.72 9.49,0 15.72,-9.52 15.76,-9.6 0.08,-0.11 8.15,-11.64 17.98,-26.2 3.27,-4.84 7.01,-9.96 13.17,-17.63 z m 62.91,41.59 c 0,-2.66 -0.97,-5.23 -2.73,-7.22 l -1.66,-1.88 C 380.81,168.5 355.06,139.31 345.04,127.97 332.46,113.73 318.39,95.58 317.22,94.06 l -1.69,-3.5 V 84.4 c 0,-2.26 -0.45,-4.47 -1.32,-6.55 l -3.58,-8.5 c -0.05,-0.12 -0.07,-0.26 -0.05,-0.39 l 0.14,-1.18 c 0.02,-0.19 0.11,-0.36 0.26,-0.49 2.79,-2.46 13.17,-10.44 29.24,-9.77 2.1,0.09 2.47,-1.06 2.53,-1.55 0.29,-2.36 -5.1,-5.14 -10.12,-6.17 -6.9,-1.41 -25.24,-5.15 -39.91,4.48 l -0.11,0.08 c -9.48,7.92 -17.1,13.97 -17.18,14.03 l -0.17,0.17 c -0.11,0.13 -2.79,3.34 -2.14,7.43 0.42,2.66 -0.96,3.61 -1.04,3.66 -0.08,0.05 -1.96,1.23 -3.9,-0.1 -2.35,-1.76 -6.43,1.26 -7.26,1.92 l -6.16,5.3 -0.12,0.12 c -0.11,0.13 -2.75,3.22 0.78,8.18 3.05,4.29 4.13,5.72 6.78,9.02 2.69,3.34 7.54,7.57 7.8,7.79 0.12,0.1 3.08,2.34 7.16,-0.78 3.35,-2.57 6.04,-4.89 6.04,-4.89 0.22,-0.18 2.16,-1.78 2.25,-4.14 0.03,-0.68 0,-1.27 0,-1.81 -0.05,-1.66 -0.06,-2.15 1.19,-2.95 0.6,0 2.44,0.67 4.02,1.47 0.17,0.1 4.12,2.32 7.71,2.16 2.26,0.3 4.76,2.87 5.62,3.92 0.08,0.08 7.72,8.1 18.48,22.17 2.05,2.67 9.58,12.7 11.64,15.5 3.44,4.68 8.65,11.76 14.25,19.39 9.7,13.21 20.58,28.02 25.52,34.68 1.64,2.21 4.03,3.71 6.73,4.23 l 1.83,0.35 c 0.7,0.13 1.4,0.2 2.1,0.2 3.24,0 6.31,-1.42 8.34,-3.94 l 0.11,-0.14 c 1.46,-1.85 2.26,-4.22 2.26,-6.66 v -1.67 z m 8.61,-118.61 -2.13,-2.13 c -0.62,-0.62 -1.49,-0.99 -2.37,-0.92 -0.88,0.04 -1.71,0.44 -2.28,1.12 l -13.4,15.85 c -0.38,0.45 -0.92,0.73 -1.5,0.79 l -4.77,0.48 c -0.61,0.06 -1.22,-0.13 -1.69,-0.52 l -7.62,-6.45 c -0.49,-0.42 -0.78,-1.02 -0.8,-1.66 l -0.11,-3.82 c -0.02,-0.55 0.17,-1.09 0.52,-1.51 l 13.03,-15.7 c 0.98,-1.18 0.97,-2.89 -0.02,-4.07 l -1.31,-1.55 c -0.86,-1.01 -2.28,-1.38 -3.52,-0.91 -3.08,1.17 -10.84,4.2 -16.45,7.24 -7.93,4.28 -13.44,11.07 -14.39,17.72 -0.7,4.87 -0.41,12.9 -0.17,17.25 0.09,1.71 -0.29,3.42 -1.12,4.95 -1.02,1.9 -2.82,4.94 -5.56,8.6 -1.4,1.93 -2.28,2.64 -3.49,4.07 l 14.74,17.33 c 3.55,-4.14 6.66,-7.28 9.37,-10.31 4.95,-5.51 6.49,-5.56 10.61,-5.7 2.54,-0.09 6.02,-0.2 11.53,-1.58 15.04,-3.76 19.8,-20.04 20,-20.76 l 3.74,-14.79 c 0.27,-1.07 -0.05,-2.23 -0.83,-3.01 z M 172.56,173.6 c -1.62,6.32 -2.15,17.09 -10.37,17.4 -0.68,3.65 2.53,5.02 5.44,3.85 2.89,-1.33 4.26,1.05 5.23,3.42 4.46,0.65 11.06,-1.49 11.31,-6.77 -6.66,-3.84 -8.72,-11.14 -11.62,-17.9 z"
           id="path64"
           style="fill:#ffffff;fill-opacity:1" /></g></g></g></svg>
