<?xml version="1.0" encoding="UTF-8" standalone="no"?>
<svg
   width="55.5625mm"
   height="55.5625mm"
   id="sqllite"
   version="1.1"
   sodipodi:docname="sqllite.svg"
   xml:space="preserve"
   inkscape:version="1.4.2 (ebf0e940, 2025-05-08)"
   xmlns:inkscape="http://www.inkscape.org/namespaces/inkscape"
   xmlns:sodipodi="http://sodipodi.sourceforge.net/DTD/sodipodi-0.dtd"
   xmlns="http://www.w3.org/2000/svg"
   xmlns:svg="http://www.w3.org/2000/svg"><defs
     id="defs1"><style
       id="style1-08">.cls-1{fill:#ea4335;}.cls-2{fill:#4285f4;}.cls-3{fill:#34a853;}.cls-4{fill:#fbbc05;}.cls-5{fill:#5f6368;}</style><style
       id="style1-3">
      .cls-1 {
        fill: #1d63ed;
        stroke-width: 0px;
      }
    </style><style
       id="style1-4">
      .cls-1 {
        fill: #fff;
        stroke-width: 0px;
      }
    </style><style
       id="style1-087">
      .cls-1 {
        fill: #1d63ed;
        stroke-width: 0px;
      }
    </style><style
       id="style1-6">
      .cls-1 {
        fill: #fff;
        stroke-width: 0px;
      }
    </style><style
       id="style1-1">.cls-1{fill:#ea4335;}.cls-2{fill:#4285f4;}.cls-3{fill:#34a853;}.cls-4{fill:#fbbc05;}.cls-5{fill:#5f6368;}</style><style
       id="style1-5">.cls-1{fill:#ea4335;}.cls-2{fill:#4285f4;}.cls-3{fill:#34a853;}.cls-4{fill:#fbbc05;}.cls-5{fill:#5f6368;}</style><style
       id="style1-7">
      .cls-1 {
        fill: #fff;
        stroke-width: 0px;
      }
    </style><style
       id="style1-56">.cls-1{fill:#ea4335;}.cls-2{fill:#4285f4;}.cls-3{fill:#34a853;}.cls-4{fill:#fbbc05;}.cls-5{fill:#5f6368;}</style></defs><sodipodi:namedview
     id="namedview1"
     pagecolor="#ffffff"
     bordercolor="#000000"
     borderopacity="0.25"
     inkscape:showpageshadow="2"
     inkscape:pageopacity="0.0"
     inkscape:pagecheckerboard="0"
     inkscape:deskcolor="#d1d1d1"
     showgrid="false"
     inkscape:zoom="0.6"
     inkscape:cx="541.66667"
     inkscape:cy="1415"
     inkscape:window-width="1352"
     inkscape:window-height="745"
     inkscape:window-x="0"
     inkscape:window-y="31"
     inkscape:window-maximized="0"
     inkscape:current-layer="sqllite"
     inkscape:document-units="mm"><inkscape:page
       x="0"
       y="0"
       width="210"
       height="210"
       id="page2"
       margin="0"
       bleed="0" /></sodipodi:namedview><style
     type="text/css"
     id="style1">
	.st0{fill:#FFFFFF;}
	.st1{fill:#4DA925;}
	.st2{fill:#2A3238;}
</style><style
     id="style1-0"><![CDATA[.B{stroke-linecap:round}.C{stroke-linejoin:round}.D{stroke-linejoin:miter}.E{stroke-width:.716}]]></style><g
     id="g43"
     transform="translate(-21.700836,-552.31732)"><rect
       style="fill:#123330;fill-opacity:1"
       id="rect30"
       width="210"
       height="210"
       x="21.700808"
       y="552.31732"
       rx="28"
       ry="28" /><g
       id="g30"
       transform="matrix(5.1558628,0,0,5.1558628,44.206251,574.8194)"><path
         d="m 15.9,0.087 0.854,1.604 c 0.192,0.296 0.4,0.558 0.645,0.802 0.715,0.715 1.394,1.464 2.004,2.266 1.447,1.9 2.423,4.01 3.12,6.292 0.418,1.394 0.645,2.824 0.662,4.27 0.07,4.323 -1.412,8.035 -4.4,11.12 -0.488,0.488 -1.01,0.94 -1.57,1.342 -0.296,0 -0.436,-0.227 -0.558,-0.436 -0.227,-0.383 -0.366,-0.82 -0.436,-1.255 -0.105,-0.523 -0.174,-1.046 -0.14,-1.586 V 24.262 C 16.057,24.21 15.796,0.21 15.9,0.087 Z"
         fill="#599636"
         id="path1" /><path
         d="m 15.9,0.034 c -0.035,-0.07 -0.07,-0.017 -0.105,0.017 0.017,0.35 -0.105,0.662 -0.296,0.96 -0.21,0.296 -0.488,0.523 -0.767,0.767 -1.55,1.342 -2.77,2.963 -3.747,4.776 -1.3,2.44 -1.97,5.055 -2.16,7.808 -0.087,0.993 0.314,4.497 0.627,5.508 0.854,2.684 2.388,4.933 4.375,6.885 0.488,0.47 1.01,0.906 1.55,1.325 0.157,0 0.174,-0.14 0.21,-0.244 a 4.78,4.78 0 0 0 0.157,-0.68 l 0.35,-2.614 z"
         fill="#6cac48"
         id="path2-46" /><path
         d="m 16.754,28.845 c 0.035,-0.4 0.227,-0.732 0.436,-1.063 -0.21,-0.087 -0.366,-0.26 -0.488,-0.453 -0.105,-0.174 -0.192,-0.383 -0.26,-0.575 -0.244,-0.732 -0.296,-1.5 -0.366,-2.248 v -0.453 c -0.087,0.07 -0.105,0.662 -0.105,0.75 a 17.37,17.37 0 0 1 -0.314,2.353 c -0.052,0.314 -0.087,0.627 -0.28,0.906 0,0.035 0,0.07 0.017,0.122 0.314,0.924 0.4,1.865 0.453,2.824 v 0.35 c 0,0.418 -0.017,0.33 0.33,0.47 0.14,0.052 0.296,0.07 0.436,0.174 0.105,0 0.122,-0.087 0.122,-0.157 L 16.683,31.27 v -1.604 c -0.017,-0.28 0.035,-0.558 0.07,-0.82 z"
         fill="#c2bfbf"
         id="path3-9" /></g></g></svg>
