<?xml version="1.0" encoding="UTF-8" standalone="no"?>
<svg
   width="55.5625mm"
   height="55.5625mm"
   id="sqllite"
   version="1.1"
   sodipodi:docname="sqllite.svg"
   xml:space="preserve"
   inkscape:version="1.4.2 (ebf0e940, 2025-05-08)"
   xmlns:inkscape="http://www.inkscape.org/namespaces/inkscape"
   xmlns:sodipodi="http://sodipodi.sourceforge.net/DTD/sodipodi-0.dtd"
   xmlns="http://www.w3.org/2000/svg"
   xmlns:svg="http://www.w3.org/2000/svg"><defs
     id="defs1"><style
       id="style1-08">.cls-1{fill:#ea4335;}.cls-2{fill:#4285f4;}.cls-3{fill:#34a853;}.cls-4{fill:#fbbc05;}.cls-5{fill:#5f6368;}</style><style
       id="style1-3">
      .cls-1 {
        fill: #1d63ed;
        stroke-width: 0px;
      }
    </style><style
       id="style1-4">
      .cls-1 {
        fill: #fff;
        stroke-width: 0px;
      }
    </style><style
       id="style1-087">
      .cls-1 {
        fill: #1d63ed;
        stroke-width: 0px;
      }
    </style><style
       id="style1-6">
      .cls-1 {
        fill: #fff;
        stroke-width: 0px;
      }
    </style><style
       id="style1-1">.cls-1{fill:#ea4335;}.cls-2{fill:#4285f4;}.cls-3{fill:#34a853;}.cls-4{fill:#fbbc05;}.cls-5{fill:#5f6368;}</style><style
       id="style1-5">.cls-1{fill:#ea4335;}.cls-2{fill:#4285f4;}.cls-3{fill:#34a853;}.cls-4{fill:#fbbc05;}.cls-5{fill:#5f6368;}</style><style
       id="style1-7">
      .cls-1 {
        fill: #fff;
        stroke-width: 0px;
      }
    </style><style
       id="style1-56">.cls-1{fill:#ea4335;}.cls-2{fill:#4285f4;}.cls-3{fill:#34a853;}.cls-4{fill:#fbbc05;}.cls-5{fill:#5f6368;}</style><style
       id="style6">.st0{fill:none}</style><style
       id="style6-9">.st0{fill:none}</style><style
       id="style6-3">.st0{fill:none}</style></defs><sodipodi:namedview
     id="namedview1"
     pagecolor="#ffffff"
     bordercolor="#000000"
     borderopacity="0.25"
     inkscape:showpageshadow="2"
     inkscape:pageopacity="0.0"
     inkscape:pagecheckerboard="0"
     inkscape:deskcolor="#d1d1d1"
     showgrid="false"
     inkscape:zoom="0.4"
     inkscape:cx="642.5"
     inkscape:cy="828.75"
     inkscape:window-width="1352"
     inkscape:window-height="848"
     inkscape:window-x="0"
     inkscape:window-y="30"
     inkscape:window-maximized="0"
     inkscape:current-layer="sqllite"
     inkscape:document-units="mm"><inkscape:page
       x="0"
       y="0"
       width="210"
       height="210"
       id="page2"
       margin="0"
       bleed="0" /></sodipodi:namedview><style
     type="text/css"
     id="style1">
	.st0{fill:#FFFFFF;}
	.st1{fill:#4DA925;}
	.st2{fill:#2A3238;}
</style><style
     id="style1-0"><![CDATA[.B{stroke-linecap:round}.C{stroke-linejoin:round}.D{stroke-linejoin:miter}.E{stroke-width:.716}]]></style><g
     id="g261"
     transform="translate(-37.795277,-514.01575)"><rect
       style="fill:#000000;fill-opacity:1"
       id="rect254"
       width="210"
       height="210"
       x="37.795277"
       y="514.01575"
       rx="28"
       ry="28" /><g
       id="g259"
       transform="matrix(0.51563303,0,0,0.51563303,60.291121,536.51698)"
       style="fill:#ffffff;fill-opacity:1"><path
         d="m 297.06,130.97 c 7.26,-21.79 4.76,-45.66 -6.85,-65.48 C 272.75,35.09 237.65,19.45 203.37,26.81 188.12,9.63 166.21,-0.14 143.24,0 108.2,-0.08 77.11,22.48 66.33,55.82 43.82,60.43 24.39,74.52 13.02,94.49 c -17.59,30.32 -13.58,68.54 9.92,94.54 -7.26,21.79 -4.76,45.66 6.85,65.48 17.46,30.4 52.56,46.04 86.84,38.68 15.24,17.18 37.16,26.95 60.13,26.8 35.06,0.09 66.16,-22.49 76.94,-55.86 22.51,-4.61 41.94,-18.7 53.31,-38.67 17.57,-30.32 13.55,-68.51 -9.94,-94.51 z M 176.78,299.08 c -14.03,0.02 -27.62,-4.89 -38.39,-13.88 0.49,-0.26 1.34,-0.73 1.89,-1.07 L 204,247.33 c 3.26,-1.85 5.26,-5.32 5.24,-9.07 v -89.83 l 26.93,15.55 c 0.29,0.14 0.48,0.42 0.52,0.74 v 74.39 c -0.04,33.08 -26.83,59.9 -59.91,59.97 z M 47.94,244.05 c -7.03,-12.14 -9.56,-26.37 -7.15,-40.18 0.47,0.28 1.3,0.79 1.89,1.13 l 63.72,36.8 c 3.23,1.89 7.23,1.89 10.47,0 l 77.79,-44.92 v 31.1 c 0.02,0.32 -0.13,0.63 -0.38,0.83 L 129.87,266 c -28.69,16.52 -65.33,6.7 -81.92,-21.95 z M 31.17,104.96 c 7,-12.16 18.05,-21.46 31.21,-26.29 0,0.55 -0.03,1.52 -0.03,2.2 v 73.61 c -0.02,3.74 1.98,7.21 5.23,9.06 l 77.79,44.91 -26.93,15.55 c -0.27,0.18 -0.61,0.21 -0.91,0.08 L 53.11,186.86 C 24.48,170.28 14.66,133.65 31.16,104.97 Z m 221.26,51.49 -77.79,-44.92 26.93,-15.54 c 0.27,-0.18 0.61,-0.21 0.91,-0.08 l 64.42,37.19 c 28.68,16.57 38.51,53.26 21.94,81.94 -7.01,12.14 -18.05,21.44 -31.2,26.28 v -75.81 c 0.03,-3.74 -1.96,-7.2 -5.2,-9.06 z m 26.8,-40.34 c -0.47,-0.29 -1.3,-0.79 -1.89,-1.13 l -63.72,-36.8 c -3.23,-1.89 -7.23,-1.89 -10.47,0 L 125.36,123.1 V 92 c -0.02,-0.32 0.13,-0.63 0.38,-0.83 l 64.41,-37.16 c 28.69,-16.55 65.37,-6.7 81.91,22 6.99,12.12 9.52,26.31 7.15,40.1 z M 110.72,171.54 83.78,155.99 c -0.29,-0.14 -0.48,-0.42 -0.52,-0.74 V 80.86 c 0.02,-33.12 26.89,-59.96 60.01,-59.94 14.01,0 27.57,4.92 38.34,13.88 -0.49,0.26 -1.33,0.73 -1.89,1.07 L 116,72.67 c -3.26,1.85 -5.26,5.31 -5.24,9.06 l -0.04,89.79 z M 125.35,140 160,119.99 l 34.65,20 V 180 L 160,200 125.35,180 Z"
         id="path7-6"
         style="fill:#ffffff;fill-opacity:1" /></g></g><style
     type="text/css"
     id="style1-60">
	.st0{fill:#FFFFFF;}
	.st1{fill:#4DA925;}
	.st2{fill:#2A3238;}
</style><style
     type="text/css"
     id="style1-17">
	.st0{fill:#FFFFFF;}
	.st1{fill:#4DA925;}
	.st2{fill:#2A3238;}
</style></svg>
