<?xml version="1.0" encoding="UTF-8" standalone="no"?>
<svg
   width="55.5625mm"
   height="55.5625mm"
   id="sqllite"
   version="1.1"
   sodipodi:docname="sqllite.svg"
   xml:space="preserve"
   inkscape:version="1.4.2 (ebf0e940, 2025-05-08)"
   xmlns:inkscape="http://www.inkscape.org/namespaces/inkscape"
   xmlns:sodipodi="http://sodipodi.sourceforge.net/DTD/sodipodi-0.dtd"
   xmlns="http://www.w3.org/2000/svg"
   xmlns:svg="http://www.w3.org/2000/svg"><defs
     id="defs1"><style
       id="style1-08">.cls-1{fill:#ea4335;}.cls-2{fill:#4285f4;}.cls-3{fill:#34a853;}.cls-4{fill:#fbbc05;}.cls-5{fill:#5f6368;}</style><style
       id="style1-3">
      .cls-1 {
        fill: #1d63ed;
        stroke-width: 0px;
      }
    </style><style
       id="style1-4">
      .cls-1 {
        fill: #fff;
        stroke-width: 0px;
      }
    </style><style
       id="style1-087">
      .cls-1 {
        fill: #1d63ed;
        stroke-width: 0px;
      }
    </style><style
       id="style1-6">
      .cls-1 {
        fill: #fff;
        stroke-width: 0px;
      }
    </style><style
       id="style1-1">.cls-1{fill:#ea4335;}.cls-2{fill:#4285f4;}.cls-3{fill:#34a853;}.cls-4{fill:#fbbc05;}.cls-5{fill:#5f6368;}</style><style
       id="style1-5">.cls-1{fill:#ea4335;}.cls-2{fill:#4285f4;}.cls-3{fill:#34a853;}.cls-4{fill:#fbbc05;}.cls-5{fill:#5f6368;}</style><style
       id="style1-7">
      .cls-1 {
        fill: #fff;
        stroke-width: 0px;
      }
    </style><style
       id="style1-56">.cls-1{fill:#ea4335;}.cls-2{fill:#4285f4;}.cls-3{fill:#34a853;}.cls-4{fill:#fbbc05;}.cls-5{fill:#5f6368;}</style></defs><sodipodi:namedview
     id="namedview1"
     pagecolor="#ffffff"
     bordercolor="#000000"
     borderopacity="0.25"
     inkscape:showpageshadow="2"
     inkscape:pageopacity="0.0"
     inkscape:pagecheckerboard="0"
     inkscape:deskcolor="#d1d1d1"
     showgrid="false"
     inkscape:zoom="0.6"
     inkscape:cx="541.66667"
     inkscape:cy="1415"
     inkscape:window-width="1352"
     inkscape:window-height="745"
     inkscape:window-x="0"
     inkscape:window-y="31"
     inkscape:window-maximized="0"
     inkscape:current-layer="sqllite"
     inkscape:document-units="mm"><inkscape:page
       x="0"
       y="0"
       width="210"
       height="210"
       id="page2"
       margin="0"
       bleed="0" /></sodipodi:namedview><g
     id="g37"
     transform="translate(-21.700806,-36.999999)"><rect
       style="fill:#252937;fill-opacity:1"
       id="rect10"
       width="210"
       height="210"
       x="21.700806"
       y="37"
       rx="28"
       ry="28" /><g
       id="g10"
       transform="matrix(4.3420022,0,0,4.3420885,24.390208,37.789876)"><path
         fill="#0277bd"
         d="m 24.047,5 c -1.555,0.005 -2.633,0.142 -3.936,0.367 -3.848,0.67 -4.549,2.077 -4.549,4.67 V 14 h 9 v 2 H 15.22 10.87 c -2.636,0 -4.943,1.242 -5.674,4.219 -0.826,3.417 -0.863,5.557 0,9.125 C 5.851,32.005 7.294,34 9.931,34 h 3.632 V 28.896 C 13.563,25.93 16.249,23 19.327,23 h 7.236 c 2.523,0 5,-1.862 5,-4.377 V 10.037 C 31.563,7.598 29.804,5.774 27.345,5.365 27.406,5.359 25.589,4.994 24.047,5 Z m -4.984,4 c 0.821,0 1.5,0.677 1.5,1.502 0,0.833 -0.679,1.498 -1.5,1.498 -0.837,0 -1.5,-0.664 -1.5,-1.498 C 17.563,9.68 18.226,9 19.063,9 Z"
         id="path1-8" /><path
         fill="#ffc107"
         d="m 23.078,43 c 1.555,-0.005 2.633,-0.142 3.936,-0.367 3.848,-0.67 4.549,-2.077 4.549,-4.67 V 34 h -9 v -2 h 9.343 4.35 c 2.636,0 4.943,-1.242 5.674,-4.219 0.826,-3.417 0.863,-5.557 0,-9.125 C 41.274,15.995 39.831,14 37.194,14 h -3.632 v 5.104 C 33.562,22.07 30.876,25 27.798,25 h -7.236 c -2.523,0 -5,1.862 -5,4.377 v 8.586 c 0,2.439 1.759,4.263 4.218,4.672 -0.061,0.006 1.756,0.371 3.298,0.365 z m 4.985,-4 c -0.821,0 -1.5,-0.677 -1.5,-1.502 0,-0.833 0.679,-1.498 1.5,-1.498 0.837,0 1.5,0.664 1.5,1.498 0,0.822 -0.664,1.502 -1.5,1.502 z"
         id="path2" /></g></g><style
     type="text/css"
     id="style1">
	.st0{fill:#FFFFFF;}
	.st1{fill:#4DA925;}
	.st2{fill:#2A3238;}
</style><style
     id="style1-0"><![CDATA[.B{stroke-linecap:round}.C{stroke-linejoin:round}.D{stroke-linejoin:miter}.E{stroke-width:.716}]]></style></svg>
