<?xml version="1.0" encoding="UTF-8" standalone="no"?>
<svg
   width="55.562508mm"
   height="55.5625mm"
   id="sqllite"
   version="1.1"
   sodipodi:docname="sqllite.svg"
   xml:space="preserve"
   inkscape:version="1.4.2 (ebf0e940, 2025-05-08)"
   xmlns:inkscape="http://www.inkscape.org/namespaces/inkscape"
   xmlns:sodipodi="http://sodipodi.sourceforge.net/DTD/sodipodi-0.dtd"
   xmlns:xlink="http://www.w3.org/1999/xlink"
   xmlns="http://www.w3.org/2000/svg"
   xmlns:svg="http://www.w3.org/2000/svg"><defs
     id="defs1"><linearGradient
       id="linearGradient15"
       inkscape:collect="always"><stop
         style="stop-color:#3a7ec7;stop-opacity:1;"
         offset="0"
         id="stop15" /><stop
         style="stop-color:#9fd2ef;stop-opacity:1;"
         offset="1"
         id="stop16" /></linearGradient><linearGradient
       inkscape:collect="always"
       xlink:href="#linearGradient15"
       id="linearGradient16"
       x1="657.32782"
       y1="514.39642"
       x2="657.32782"
       y2="304.39642"
       gradientUnits="userSpaceOnUse" /><style
       id="style1-08">.cls-1{fill:#ea4335;}.cls-2{fill:#4285f4;}.cls-3{fill:#34a853;}.cls-4{fill:#fbbc05;}.cls-5{fill:#5f6368;}</style><style
       id="style1-3">
      .cls-1 {
        fill: #1d63ed;
        stroke-width: 0px;
      }
    </style><style
       id="style1-4">
      .cls-1 {
        fill: #fff;
        stroke-width: 0px;
      }
    </style><style
       id="style1-087">
      .cls-1 {
        fill: #1d63ed;
        stroke-width: 0px;
      }
    </style><style
       id="style1-6">
      .cls-1 {
        fill: #fff;
        stroke-width: 0px;
      }
    </style><style
       id="style1-1">.cls-1{fill:#ea4335;}.cls-2{fill:#4285f4;}.cls-3{fill:#34a853;}.cls-4{fill:#fbbc05;}.cls-5{fill:#5f6368;}</style><style
       id="style1-5">.cls-1{fill:#ea4335;}.cls-2{fill:#4285f4;}.cls-3{fill:#34a853;}.cls-4{fill:#fbbc05;}.cls-5{fill:#5f6368;}</style><style
       id="style1-7">
      .cls-1 {
        fill: #fff;
        stroke-width: 0px;
      }
    </style><style
       id="style1-56">.cls-1{fill:#ea4335;}.cls-2{fill:#4285f4;}.cls-3{fill:#34a853;}.cls-4{fill:#fbbc05;}.cls-5{fill:#5f6368;}</style></defs><sodipodi:namedview
     id="namedview1"
     pagecolor="#ffffff"
     bordercolor="#000000"
     borderopacity="0.25"
     inkscape:showpageshadow="2"
     inkscape:pageopacity="0.0"
     inkscape:pagecheckerboard="0"
     inkscape:deskcolor="#d1d1d1"
     showgrid="false"
     inkscape:zoom="0.6"
     inkscape:cx="541.66667"
     inkscape:cy="1415"
     inkscape:window-width="1352"
     inkscape:window-height="745"
     inkscape:window-x="0"
     inkscape:window-y="31"
     inkscape:window-maximized="0"
     inkscape:current-layer="sqllite"
     inkscape:document-units="mm"><inkscape:page
       x="0"
       y="0"
       width="210.00003"
       height="210"
       id="page2"
       margin="0"
       bleed="0" /></sodipodi:namedview><style
     type="text/css"
     id="style1">
	.st0{fill:#FFFFFF;}
	.st1{fill:#4DA925;}
	.st2{fill:#2A3238;}
</style><style
     id="style1-0"><![CDATA[.B{stroke-linecap:round}.C{stroke-linejoin:round}.D{stroke-linejoin:miter}.E{stroke-width:.716}]]></style><g
     id="g42"
     transform="translate(-552.32782,-304.39642)"><rect
       style="fill:url(#linearGradient16);fill-opacity:1"
       id="rect15"
       width="210"
       height="210"
       x="552.32782"
       y="304.39642"
       rx="28"
       ry="28" /><path
       id="rect26"
       style="fill:#ffffff;fill-opacity:0.996241;stroke:none;stroke-width:0.577;stroke-dasharray:none;stroke-opacity:1"
       d="m 762.32786,357.3554 c -0.0321,18.93332 -12.9809,43.72991 -25.1641,62.86914 -12.60953,4.04586 -27.31055,12.97461 -27.31055,12.97461 0,0 1.22487,-0.64755 5.76367,-2.54492 3.0772,-1.29049 12.25862,-3.47458 17.85352,-4.74414 -9.3365,14.04193 -17.33008,23.87109 -17.33008,23.87109 0,0 -16.28768,6.60647 -21.33008,21.9668 2.9163,-16.38575 7.76382,-33.49143 14.60352,-51.71875 6.1054,-16.27414 26.5128,-60.22704 41.584,-73.80859 -16.53285,13.14906 -34.60578,40.68102 -47.63478,74.99414 -7.707,22.73357 -11.8803,44.5411 -12.5586,62.6289 -0.4476,11.83067 0.57882,22.09131 3.10352,29.91797 l -1.16797,0.63477 h 41.58789 c 15.51204,0 28.00004,-12.488 28.00004,-28 z" /><path
       fill="#444"
       d="m 754.37418,337.32585 c -7.7978,-6.93377 -17.2392,-4.15049 -26.5616,4.10167 -1.4365,1.28519 -2.8156,2.63279 -4.1333,4.0389 -15.9384,16.86707 -30.7368,48.11091 -35.3386,71.97454 1.7904,3.62035 3.1891,8.2452 4.1122,11.77487 0.2378,0.90683 0.4476,1.75785 0.6225,2.47634 0.4056,1.70903 0.6224,2.82513 0.6224,2.82513 0,0 -0.1399,-0.53712 -0.7273,-2.23918 l -0.3847,-1.10214 c -0.075,-0.20488 -0.1566,-0.40731 -0.2448,-0.60688 -1.042,-2.41357 -3.9164,-7.4988 -5.1822,-9.71705 -1.084,3.18786 -2.0421,6.16645 -2.8394,8.86602 3.6576,6.6687 5.8816,18.10175 5.8816,18.10175 0,0 -0.1958,-0.73941 -1.112,-3.32737 -0.8182,-2.28801 -4.8745,-9.38222 -5.8396,-11.04242 -1.6435,6.06182 -2.3009,10.14954 -1.7065,11.14705 1.147,1.93225 2.238,5.25963 3.1961,8.94276 2.161,8.29402 3.6646,18.39474 3.6646,18.39474 l 0.1329,1.70205 c -0.3007,6.96865 -0.1189,14.18843 0.4196,20.71762 0.7204,8.6428 2.0632,16.06487 3.7836,20.04098 l 1.1679,-0.63478 c -2.5247,-7.82666 -3.5527,-18.08781 -3.1051,-29.91848 0.6783,-18.0878 4.8535,-39.89362 12.5605,-62.62719 13.029,-34.31312 31.1005,-61.84593 47.6333,-74.99499 -15.0712,13.58155 -35.4785,57.53499 -41.5839,73.80913 -6.8397,18.22732 -11.6863,35.33156 -14.6026,51.71731 5.0424,-15.36033 21.3304,-21.96625 21.3304,-21.96625 0,0 7.9937,-9.82867 17.3302,-23.8706 -5.5949,1.26956 -14.7775,3.45293 -17.8547,4.74342 -4.5388,1.89737 -5.7627,2.54611 -5.7627,2.54611 0,0 14.7005,-8.92881 27.31,-12.97467 17.3441,-27.24681 36.2408,-65.96155 17.2112,-82.89839 z"
       id="path29"
       style="fill:#003b57;fill-opacity:1;stroke-width:6.9846"
       sodipodi:nodetypes="ccccccccccccccccccccccccccccccccc"
       inkscape:export-filename="path5.svg"
       inkscape:export-xdpi="96"
       inkscape:export-ydpi="96" /><g
       id="g29"
       transform="matrix(1.3207767,0,0,1.3207767,887.81032,196.50523)"><path
         d="m -232.29078,103.64356 c -1.82046,0 -3.30092,0.53912 -4.43573,1.61603 -1.13455,1.07824 -1.71024,2.49142 -1.71024,4.22328 0,0.89729 0.14274,1.71558 0.42435,2.46528 0.28185,0.75129 0.72035,1.44735 1.30964,2.07641 0.58929,0.62933 1.76896,1.48419 3.52697,2.5715 2.15755,1.31684 3.56913,2.38573 4.24678,3.2203 0.67789,0.83377 1.01445,1.70757 1.01445,2.61874 0,1.21969 -0.40141,2.19358 -1.22691,2.9254 -0.82656,0.73234 -1.93228,1.09692 -3.30277,1.09692 -1.44576,0 -2.70522,-0.5095 -3.78666,-1.52128 -1.08144,-1.01366 -1.62749,-2.35424 -1.63978,-4.03459 h -0.67256 v 6.09872 h 0.67256 c 0.20551,-0.57755 0.48949,-0.87272 0.86126,-0.87272 0.17882,0 0.59784,0.12297 1.25039,0.35362 1.58774,0.565 2.8915,0.8375 3.91636,0.8375 1.76602,0 3.27368,-0.61838 4.52968,-1.87544 1.25439,-1.25652 1.88746,-2.77219 1.88746,-4.54168 0,-1.37182 -0.41797,-2.59285 -1.23838,-3.65669 -0.82069,-1.06542 -2.41644,-2.3046 -4.80137,-3.72766 -2.05212,-1.23304 -3.38419,-2.23708 -3.99884,-3.01988 -0.61571,-0.78171 -0.93198,-1.64644 -0.93198,-2.59524 0,-1.0262 0.37712,-1.85063 1.12067,-2.46555 0.74356,-0.61519 1.71798,-0.91997 2.93741,-0.91997 1.37182,0 2.51572,0.40728 3.42075,1.2269 0.90423,0.82095 1.42706,1.95871 1.58079,3.42074 h 0.67257 v -5.28445 h -0.62533 c -0.0767,0.2693 -0.14726,0.44144 -0.21244,0.51885 -0.0632,0.0768 -0.18495,0.11799 -0.36565,0.11799 -0.21752,0 -0.6053,-0.0916 -1.15617,-0.27143 -1.17965,-0.39714 -2.26724,-0.60157 -3.26755,-0.60157 z m 21.97635,0 c -2.21813,0 -4.23209,0.5231 -6.05148,1.56906 -1.82235,1.04407 -3.26489,2.49409 -4.32925,4.34098 -1.06409,1.84688 -1.59253,3.808 -1.59253,5.8983 0,2.80769 0.91917,5.30952 2.77218,7.5023 1.85384,2.19118 4.07544,3.55659 6.65308,4.08158 0.58929,0.30691 1.4324,1.09958 2.53626,2.3828 1.24371,1.44788 2.29606,2.49222 3.16132,3.11408 a 9.4991907,9.4991907 0 0 0 2.78367,1.38036 c 0.98751,0.30053 2.0548,0.44838 3.20885,0.44838 1.3977,0 2.64889,-0.24314 3.75115,-0.74329 l -0.24767,-0.61358 c -0.63975,0.23085 -1.32218,0.34214 -2.04066,0.34214 -0.97548,0 -1.96111,-0.32159 -2.94915,-0.96721 -0.98669,-0.64747 -2.22052,-1.88238 -3.69217,-3.70418 -0.69177,-0.87273 -1.16924,-1.42359 -1.43934,-1.6395 2.8205,-0.55087 5.13953,-1.91762 6.94825,-4.10533 1.80792,-2.18638 2.71295,-4.6818 2.71295,-7.47883 0,-3.32065 -1.18153,-6.1118 -3.52697,-8.38706 -2.34757,-2.27578 -5.23427,-3.421 -8.65849,-3.421 z m 13.71901,0 0.0355,0.71953 c 1.4767,0 2.30407,0.43505 2.48902,1.30937 0.0688,0.31307 0.10034,0.89063 0.10592,1.72225 l -0.0121,15.91339 c -0.0121,1.18847 -0.18148,1.94725 -0.50709,2.27658 -0.32615,0.32695 -0.87728,0.53191 -1.67502,0.61331 l -0.0355,0.71981 h 14.72172 l 0.37765,-3.6097 h -0.67256 c -0.19217,0.98323 -0.63227,1.68782 -1.33287,2.08789 -0.70272,0.40301 -1.9451,0.60157 -3.73941,0.60157 h -1.3921 c -1.61468,0 -2.54881,-0.58368 -2.79568,-1.75774 -0.0507,-0.23219 -0.0683,-0.48121 -0.0708,-0.75476 l 0.0587,-16.09035 c 0,-1.18659 0.14967,-1.98166 0.46039,-2.37106 0.3136,-0.38779 0.8794,-0.60477 1.69848,-0.66056 l -0.0352,-0.71953 z m -13.48334,0.87273 c 2.5021,0 4.54462,0.98563 6.12249,2.97291 1.57732,1.98807 2.35931,4.71276 2.35931,8.16313 0,3.26941 -0.7932,5.88708 -2.38281,7.8562 -1.58987,1.9686 -3.70551,2.94915 -6.33466,2.94915 -2.52585,0 -4.57425,-1.01124 -6.14596,-3.04336 -1.57039,-2.03237 -2.34732,-4.67086 -2.34732,-7.91545 0,-3.33401 0.78653,-6.00292 2.37107,-7.99793 1.58346,-1.99261 3.70391,-2.98438 6.35815,-2.98438 z m 33.85568,3.42129 c -0.35924,0 -0.63279,0.12116 -0.83751,0.36564 -0.20951,0.2434 -0.27383,0.53832 -0.20069,0.89649 0.0708,0.34748 0.26688,0.65174 0.57808,0.90823 0.3096,0.25621 0.64347,0.38938 1.00271,0.38938 0.34723,0 0.61199,-0.13323 0.80201,-0.38938 0.19029,-0.25622 0.2482,-0.56075 0.17694,-0.90823 -0.0732,-0.35817 -0.26236,-0.65309 -0.55433,-0.89677 -0.29545,-0.2442 -0.61998,-0.36563 -0.96721,-0.36563 z m 9.70816,2.44178 c -0.61011,2.34705 -1.93256,3.61717 -3.96334,3.82187 l 0.0235,0.67258 h 2.37107 l -0.0472,7.95069 c 0.003,1.35927 0.0454,2.2643 0.14138,2.72495 0.23379,1.10254 0.95387,1.66327 2.15887,1.66327 1.7436,0 3.57234,-1.06222 5.48516,-3.18508 l -0.57783,-0.49536 c -1.38116,1.39799 -2.60218,2.09964 -3.66868,2.09964 -0.65548,0 -1.06169,-0.37684 -1.21515,-1.12067 -0.042,-0.18069 -0.0587,-0.3918 -0.0587,-0.63708 l 0.0235,-9.00036 h 3.62144 l -0.0355,-1.0737 h -3.57421 v -3.42075 z m 14.00218,2.99612 c -2.02571,0 -3.67323,0.98349 -4.9543,2.9374 -1.2744,1.95712 -1.66887,4.12561 -1.16792,6.51162 0.29492,1.39744 0.88235,2.48049 1.78124,3.24379 0.89755,0.76331 2.0361,1.14443 3.39751,1.14443 1.26722,0 3.03189,-0.32107 3.77465,-0.96748 0.74463,-0.64588 1.43055,-1.69262 2.06441,-3.12584 l -0.50709,-0.53111 c -1.01098,1.85971 -3.05057,2.79596 -4.58894,2.79596 -2.11485,0 -3.41006,-1.16045 -3.89286,-3.46825 a 8.4374976,8.4374976 0 0 1 -0.14138,-0.94373 c 2.51597,-0.3982 4.42265,-1.1036 5.70932,-2.12312 1.2859,-1.02032 2.57684,-2.10177 2.33584,-3.24406 -0.14364,-0.67898 -0.49588,-1.21276 -1.0382,-1.61603 -0.54927,-0.40327 -1.975,-0.61358 -2.77221,-0.61358 z m -22.14129,0.0827 -4.36473,1.0027 v 0.77853 l 1.5098,-0.18869 c 0.73127,0 1.16177,0.33094 1.29762,0.9907 0.0456,0.22071 0.0747,0.53111 0.0827,0.92024 l -0.0475,7.13667 c -0.0121,0.98749 -0.12176,1.56157 -0.34189,1.73399 -0.22231,0.17268 -0.8084,0.25968 -1.75773,0.25968 l -0.0235,0.6723 h 6.92422 l -0.0121,-0.67257 c -0.96214,0 -1.58588,-0.0757 -1.8637,-0.22418 -0.27329,-0.14681 -0.46172,-0.41502 -0.54259,-0.8255 -0.0628,-0.2957 -0.0902,-0.80548 -0.0944,-1.50981 l 0.0237,-10.07406 h -0.79054 z m 21.03262,1.32111 c 0.42142,0 0.82843,0.1628 1.23838,0.4836 0.40461,0.31974 0.65094,0.67523 0.73155,1.06169 0.395,1.89761 -1.28722,3.20911 -5.07254,3.93985 -0.10788,-1.38329 0.13188,-2.63955 0.7433,-3.77464 0.6069,-1.13429 1.39717,-1.7105 2.35931,-1.7105 z"
         fill="#003b57"
         id="path3-0"
         style="stroke-width:0.266891" /></g></g></svg>
