<?xml version="1.0" encoding="UTF-8" standalone="no"?>
<svg
   width="55.5625mm"
   height="55.5625mm"
   id="sqllite"
   version="1.1"
   sodipodi:docname="sqllite.svg"
   xml:space="preserve"
   inkscape:version="1.4.2 (ebf0e940, 2025-05-08)"
   xmlns:inkscape="http://www.inkscape.org/namespaces/inkscape"
   xmlns:sodipodi="http://sodipodi.sourceforge.net/DTD/sodipodi-0.dtd"
   xmlns="http://www.w3.org/2000/svg"
   xmlns:svg="http://www.w3.org/2000/svg"><defs
     id="defs1"><style
       id="style1-08">.cls-1{fill:#ea4335;}.cls-2{fill:#4285f4;}.cls-3{fill:#34a853;}.cls-4{fill:#fbbc05;}.cls-5{fill:#5f6368;}</style><style
       id="style1-3">
      .cls-1 {
        fill: #1d63ed;
        stroke-width: 0px;
      }
    </style><style
       id="style1-4">
      .cls-1 {
        fill: #fff;
        stroke-width: 0px;
      }
    </style><style
       id="style1-087">
      .cls-1 {
        fill: #1d63ed;
        stroke-width: 0px;
      }
    </style><style
       id="style1-6">
      .cls-1 {
        fill: #fff;
        stroke-width: 0px;
      }
    </style><style
       id="style1-1">.cls-1{fill:#ea4335;}.cls-2{fill:#4285f4;}.cls-3{fill:#34a853;}.cls-4{fill:#fbbc05;}.cls-5{fill:#5f6368;}</style><style
       id="style1-5">.cls-1{fill:#ea4335;}.cls-2{fill:#4285f4;}.cls-3{fill:#34a853;}.cls-4{fill:#fbbc05;}.cls-5{fill:#5f6368;}</style><style
       id="style1-7">
      .cls-1 {
        fill: #fff;
        stroke-width: 0px;
      }
    </style><style
       id="style1-56">.cls-1{fill:#ea4335;}.cls-2{fill:#4285f4;}.cls-3{fill:#34a853;}.cls-4{fill:#fbbc05;}.cls-5{fill:#5f6368;}</style></defs><sodipodi:namedview
     id="namedview1"
     pagecolor="#ffffff"
     bordercolor="#000000"
     borderopacity="0.25"
     inkscape:showpageshadow="2"
     inkscape:pageopacity="0.0"
     inkscape:pagecheckerboard="0"
     inkscape:deskcolor="#d1d1d1"
     showgrid="false"
     inkscape:zoom="0.6"
     inkscape:cx="541.66667"
     inkscape:cy="1415"
     inkscape:window-width="1352"
     inkscape:window-height="745"
     inkscape:window-x="0"
     inkscape:window-y="31"
     inkscape:window-maximized="0"
     inkscape:current-layer="sqllite"
     inkscape:document-units="mm"><inkscape:page
       x="0"
       y="0"
       width="210"
       height="210"
       id="page2"
       margin="0"
       bleed="0" /></sodipodi:namedview><style
     type="text/css"
     id="style1">
	.st0{fill:#FFFFFF;}
	.st1{fill:#4DA925;}
	.st2{fill:#2A3238;}
</style><style
     id="style1-0"><![CDATA[.B{stroke-linecap:round}.C{stroke-linejoin:round}.D{stroke-linejoin:miter}.E{stroke-width:.716}]]></style><g
     id="g100"
     transform="translate(-820.15747,-1224.5669)"><g
       id="g93"
       transform="translate(424.13387,-16.894619)"><rect
         style="fill:#252937;fill-opacity:1"
         id="rect92"
         width="210"
         height="210"
         x="396.02362"
         y="1241.4615"
         rx="28"
         ry="28" /></g><g
       id="g99"
       transform="matrix(0.56203386,0,0,0.56203386,842.65796,1247.0024)"><path
         fill-rule="evenodd"
         fill="#000000"
         fill-opacity="1"
         d="M 286.99858,145.37446 145.22904,6.4877374 6.3423305,148.18305 145.22904,287.14399 286.99858,145.37446"
         id="path2-6" /><path
         fill="none"
         stroke-width="0.216"
         stroke-linecap="butt"
         stroke-linejoin="miter"
         stroke="#000000"
         stroke-opacity="1"
         stroke-miterlimit="2.6131"
         d="M 286.99858,145.37446 145.22905,6.4877374 6.3423305,148.18305 145.22905,287.14399 Z m 0,0"
         id="path4-1" /><path
         fill-rule="evenodd"
         fill="#006b05"
         fill-opacity="1"
         d="m 272.81498,145.37446 h 8.4961 L 145.22904,281.45649 v -8.4961 L 272.81498,145.37446"
         id="path6-7" /><path
         fill="none"
         stroke-width="0.216"
         stroke-linecap="butt"
         stroke-linejoin="miter"
         stroke="#000000"
         stroke-opacity="1"
         stroke-miterlimit="2.6131"
         d="m 272.81498,145.37446 h 8.4961 L 145.22905,281.45649 v -8.4961 z m 0,0"
         id="path8-39" /><path
         fill-rule="evenodd"
         fill="#007d17"
         fill-opacity="1"
         d="m 12.02983,148.18305 h 8.49609 l 124.70312,124.77734 v 8.4961 L 12.02983,148.18305"
         id="path10-84" /><path
         fill="none"
         stroke-width="0.216"
         stroke-linecap="butt"
         stroke-linejoin="miter"
         stroke="#000000"
         stroke-opacity="1"
         stroke-miterlimit="2.6131"
         d="m 12.02983,148.18305 h 8.49609 l 124.70313,124.77734 v 8.4961 z m 0,0"
         id="path12-0" /><path
         fill-rule="evenodd"
         fill="#66ff99"
         fill-opacity="1"
         d="m 145.22904,20.601017 v -8.42578 L 12.02983,148.18305 h 8.49609 L 145.22904,20.601017"
         id="path14" /><path
         fill="none"
         stroke-width="0.216"
         stroke-linecap="butt"
         stroke-linejoin="miter"
         stroke="#000000"
         stroke-opacity="1"
         stroke-miterlimit="2.6131"
         d="m 145.22905,20.601017 v -8.42578 L 12.02983,148.18305 h 8.49609 z m 0,0"
         id="path16" /><path
         fill-rule="evenodd"
         fill="#45ff02"
         fill-opacity="1"
         d="m 145.22904,12.175237 v 8.42578 L 272.81498,145.37446 h 8.4961 L 145.22904,12.175237"
         id="path18" /><path
         fill="none"
         stroke-width="0.216"
         stroke-linecap="butt"
         stroke-linejoin="miter"
         stroke="#000000"
         stroke-opacity="1"
         stroke-miterlimit="2.6131"
         d="m 145.22905,12.175237 v 8.42578 L 272.81498,145.37446 h 8.4961 z m 0,0"
         id="path20" /><path
         fill-rule="evenodd"
         fill="#009933"
         fill-opacity="1"
         d="M 145.22904,272.96039 272.81498,145.37446 145.22904,20.601017 20.52592,148.18305 145.22904,272.96039"
         id="path22" /><path
         fill="none"
         stroke-width="0.216"
         stroke-linecap="butt"
         stroke-linejoin="miter"
         stroke="#000000"
         stroke-opacity="1"
         stroke-miterlimit="2.6131"
         d="M 145.22905,272.96039 272.81498,145.37446 145.22905,20.601017 20.52592,148.18305 Z m 0,0"
         id="path24" /><path
         fill-rule="evenodd"
         fill="#000000"
         fill-opacity="1"
         d="m 171.72514,48.968207 8.49609,8.5664 -58.60547,59.472663 V 57.534607 h 5.6875 l 8.4961,-8.5664 v -22.60938 l -8.4961,-8.56641 H 32.83842 l -8.49609,8.56641 v 22.60938 l 8.49609,8.5664 h 6.62499 V 250.28071 L 49.8306,258.7768 H 79.135285 L 282.24467,48.968207 v -22.60938 l -8.49609,-8.56641 h -92.58985 l -9.43359,8.56641 v 22.60938"
         id="path26" /><path
         fill="none"
         stroke-width="0.216"
         stroke-linecap="butt"
         stroke-linejoin="miter"
         stroke="#000000"
         stroke-opacity="1"
         stroke-miterlimit="2.6131"
         d="m 171.72514,48.968207 8.49609,8.5664 -58.60547,59.472663 V 57.534607 h 5.6875 l 8.4961,-8.5664 v -22.60938 l -8.4961,-8.56641 H 32.83842 l -8.49609,8.56641 v 22.60938 l 8.49609,8.5664 h 6.62499 V 250.28071 L 49.8306,258.7768 H 79.135295 L 282.24467,48.968207 v -22.60938 l -8.49609,-8.56641 h -92.58985 l -9.43359,8.56641 z m 0,0"
         id="path28" /><path
         fill-rule="evenodd"
         fill="#ffffff"
         fill-opacity="1"
         d="m 35.647,51.847107 -5.68749,-5.6875 v -16.99219 l 5.68749,-5.6875 88.84767,-0.07031 5.61719,5.75781 -5.61719,2.73829 -2.87891,-2.73829 -85.96876,14.11329 v 8.5664"
         id="path30" /><path
         fill="none"
         stroke-width="0.216"
         stroke-linecap="butt"
         stroke-linejoin="miter"
         stroke="#000000"
         stroke-opacity="1"
         stroke-miterlimit="2.6131"
         d="m 35.647,51.847107 -5.68749,-5.6875 v -16.99219 l 5.68749,-5.6875 88.84767,-0.07031 5.61719,5.75781 -5.61719,2.73829 -2.87891,-2.73829 -85.96876,14.11329 z m 0,0"
         id="path32" /><path
         fill-rule="evenodd"
         fill="#ffffff"
         fill-opacity="1"
         d="m 52.63919,253.0893 -6.625,-5.6875 V 51.776797 l 6.625,-5.61719 V 253.0893"
         id="path34" /><path
         fill="none"
         stroke-width="0.216"
         stroke-linecap="butt"
         stroke-linejoin="miter"
         stroke="#000000"
         stroke-opacity="1"
         stroke-miterlimit="2.6131"
         d="m 52.63919,253.0893 -6.625,-5.6875 V 51.776797 l 6.625,-5.61719 z m 0,0"
         id="path36" /><path
         fill-rule="evenodd"
         fill="#ffffff"
         fill-opacity="1"
         d="m 194.40483,51.847107 5.6875,-5.6875 v 11.375 l -94.53516,96.335943 10.44141,-22.67969 78.40625,-79.343753"
         id="path38" /><path
         fill="none"
         stroke-width="0.216"
         stroke-linecap="butt"
         stroke-linejoin="miter"
         stroke="#000000"
         stroke-opacity="1"
         stroke-miterlimit="2.6131"
         d="m 194.40483,51.847107 5.6875,-5.6875 v 11.375 l -94.53516,96.335943 10.44141,-22.67969 z m 0,0"
         id="path40" /><path
         fill-rule="evenodd"
         fill="#7f7f7f"
         fill-opacity="1"
         d="m 54.5806,43.351017 -1.94141,2.80859 -6.625,5.6875 H 35.647 v -11.375 l 18.9336,2.87891"
         id="path42" /><path
         fill="none"
         stroke-width="0.216"
         stroke-linecap="butt"
         stroke-linejoin="miter"
         stroke="#000000"
         stroke-opacity="1"
         stroke-miterlimit="2.6131"
         d="m 54.5806,43.351017 -1.94141,2.80859 -6.625,5.6875 H 35.647 v -11.375 z m 0,0"
         id="path44" /><path
         fill-rule="evenodd"
         fill="#7f7f7f"
         fill-opacity="1"
         d="m 115.99858,51.847107 v 79.343753 l -10.44141,22.60938 V 46.089297 h 16.05859 l 2.87891,-2.80859 -2.87891,-14.11329 h 8.4961 v 16.99219 l -5.61719,5.6875 h -8.49609"
         id="path46" /><path
         fill="none"
         stroke-width="0.216"
         stroke-linecap="butt"
         stroke-linejoin="miter"
         stroke="#000000"
         stroke-opacity="1"
         stroke-miterlimit="2.6131"
         d="m 115.99858,51.847107 v 79.343753 l -10.44141,22.60938 V 46.089297 h 16.05859 l 2.87891,-2.80859 -2.87891,-14.11329 h 8.4961 v 16.99219 l -5.61719,5.6875 z m 0,0"
         id="path48" /><path
         fill-rule="evenodd"
         fill="#ffffff"
         fill-opacity="1"
         d="m 183.02983,51.847107 -5.61719,-5.6875 v -16.99219 l 6.55469,-5.6875 h 86.03906 l 6.625,5.6875 -9.50391,8.4961 -84.09765,5.61719 v 8.5664"
         id="path50" /><path
         fill="none"
         stroke-width="0.216"
         stroke-linecap="butt"
         stroke-linejoin="miter"
         stroke="#000000"
         stroke-opacity="1"
         stroke-miterlimit="2.6131"
         d="m 183.02983,51.847107 -5.61719,-5.6875 v -16.99219 l 6.55469,-5.6875 h 86.03906 l 6.625,5.6875 -9.50391,8.4961 -84.09765,5.61719 z m 0,0"
         id="path52" /><path
         fill-rule="evenodd"
         fill="#7f7f7f"
         fill-opacity="1"
         d="M 276.63139,46.159607 77.189975,253.0893 H 52.63919 v -8.49609 H 70.639195 L 270.00639,40.472107 267.12748,29.167417 h 9.50391 v 16.99219"
         id="path54" /><path
         fill="none"
         stroke-width="0.216"
         stroke-linecap="butt"
         stroke-linejoin="miter"
         stroke="#000000"
         stroke-opacity="1"
         stroke-miterlimit="2.6131"
         d="M 276.63139,46.159607 77.189975,253.0893 H 52.63919 v -8.49609 H 70.639195 L 270.00639,40.472107 267.12748,29.167417 h 9.50391 z m 0,0"
         id="path56" /><path
         fill-rule="evenodd"
         fill="#7f7f7f"
         fill-opacity="1"
         d="m 201.96733,43.351017 -1.94532,2.80859 -5.61718,5.6875 h -11.375 v -11.375 l 18.9375,2.87891"
         id="path58" /><path
         fill="none"
         stroke-width="0.216"
         stroke-linecap="butt"
         stroke-linejoin="miter"
         stroke="#000000"
         stroke-opacity="1"
         stroke-miterlimit="2.6131"
         d="m 201.96733,43.351017 -1.94532,2.80859 -5.61718,5.6875 h -11.375 v -11.375 z m 0,0"
         id="path60-6" /><path
         fill-rule="evenodd"
         fill="#cccccc"
         fill-opacity="1"
         d="M 105.55717,153.80024 V 46.089297 h 16.05859 l 2.87891,-2.80859 v -11.375 l -2.87891,-2.8086 H 38.4556 l -2.8086,2.8086 v 11.375 l 2.8086,2.80859 H 52.63919 V 244.59321 l 3.67189,2.80859 H 72.510285 L 270.93998,40.472107 v -8.13672 l -2.8789,-3.23828 h -82.15235 l -2.8789,2.8086 v 11.44531 l 2.8789,2.80859 h 14.1836 v 11.375 l -94.53516,96.265633"
         id="path62-3" /><path
         fill="none"
         stroke-width="0.216"
         stroke-linecap="butt"
         stroke-linejoin="miter"
         stroke="#000000"
         stroke-opacity="1"
         stroke-miterlimit="2.6131"
         d="M 105.55717,153.80024 V 46.089297 h 16.05859 l 2.87891,-2.80859 v -11.375 l -2.87891,-2.8086 H 38.4556 l -2.8086,2.8086 v 11.375 l 2.8086,2.80859 H 52.63919 V 244.59321 l 3.67189,2.80859 H 72.510295 L 270.93998,40.472107 v -8.13672 l -2.8789,-3.23828 h -82.15235 l -2.8789,2.8086 v 11.44531 l 2.8789,2.80859 h 14.1836 v 11.375 z m 0,0"
         id="path64-4" /><path
         fill-rule="evenodd"
         fill="#000000"
         fill-opacity="1"
         d="m 157.11186,153.94477 6.62109,-5.6875 h 16.99219 l 4.7539,5.6875 -5.6875,16.99219 -6.55468,5.6875 h -16.99219 l -4.82422,-5.6875 5.69141,-16.99219"
         id="path66" /><path
         fill="none"
         stroke-width="0.216"
         stroke-linecap="butt"
         stroke-linejoin="miter"
         stroke="#000000"
         stroke-opacity="1"
         stroke-miterlimit="2.6131"
         d="m 157.11186,153.94477 6.62109,-5.6875 h 16.99219 l 4.75391,5.6875 -5.6875,16.99219 -6.55469,5.6875 h -16.99219 l -4.82422,-5.6875 z m 0,0"
         id="path68-6" /><path
         fill-rule="evenodd"
         fill="#000000"
         fill-opacity="1"
         d="m 162.79936,247.47211 17.0625,-50.97656 h -5.6875 l 5.6875,-17.0625 h 25.41797 l 5.6875,5.6875 h 3.8164 l 5.61328,-5.6875 h 18.9375 l 5.6875,5.6875 h 1.74219 l 5.69141,-5.6875 h 22.73437 l 7.5586,11.375 -12.38282,40.32031 h 5.61719 l -5.47266,16.34375 h -34.05468 l 13.3164,-39.67187 h -8.49218 l -7.85157,23.18359 h 5.61719 l -5.32812,16.48828 h -34.05469 l 13.24609,-39.67187 h -8.49609 l -7.91797,23.32812 h 5.6875 l -5.32813,16.34375 h -34.05468"
         id="path70-9"
         sodipodi:nodetypes="cccccccccccccccccccccccccccccc" /><path
         fill="none"
         stroke-width="0.216"
         stroke-linecap="butt"
         stroke-linejoin="miter"
         stroke="#000000"
         stroke-opacity="1"
         stroke-miterlimit="2.6131"
         d="m 162.79936,247.47211 17.0625,-50.97656 h -5.6875 l 5.6875,-17.0625 h 25.41797 l 5.6875,5.6875 h 3.8164 l 5.61328,-5.6875 h 18.9375 l 5.6875,5.6875 h 3.74219 l 5.69141,-5.6875 h 20.73437 l 7.5586,11.375 -12.38282,40.32031 h 5.61719 l -5.47266,16.34375 h -34.05468 l 13.3164,-39.67187 h -8.49218 l -7.85157,23.18359 h 5.61719 l -5.32812,16.48828 h -34.05469 l 13.24609,-39.67187 h -8.49609 l -7.91797,23.32812 h 5.6875 l -5.32812,16.34375 z m 0,0"
         id="path72" /><path
         fill-rule="evenodd"
         fill="#cccccc"
         fill-opacity="1"
         d="m 272.59623,185.12055 4.39453,6.26172 -13.96875,44.78515 h 5.61719 l -1.875,5.61719 h -22.67969 l 13.25,-39.67187 h -19.87109 l -11.30469,34.05468 h 5.61328 l -1.87109,5.61719 h -22.67969 l 13.25,-39.67187 h -19.875 l -11.30078,34.05468 h 5.6875 l -1.94531,5.61719 h -22.67969 l 17.0625,-50.97656 h -5.6875 l 1.87109,-5.6875 h 20.8086 l 5.6875,5.6875 h 5.61719 l 5.6875,-5.6875 h 16.99218 l 5.6875,5.6875 h 5.6875 l 5.69141,-5.6875 h 17.13281"
         id="path74" /><path
         fill="none"
         stroke-width="0.216"
         stroke-linecap="butt"
         stroke-linejoin="miter"
         stroke="#000000"
         stroke-opacity="1"
         stroke-miterlimit="2.6131"
         d="m 272.59623,185.12055 4.39453,6.26172 -13.96875,44.78515 h 5.61719 l -1.875,5.61719 h -22.67969 l 13.25,-39.67187 h -19.87109 l -11.30469,34.05468 h 5.61328 l -1.87109,5.61719 h -22.67969 l 13.25,-39.67187 h -19.875 l -11.30078,34.05468 h 5.6875 l -1.94531,5.61719 h -22.67969 l 17.0625,-50.97656 h -5.6875 l 1.8711,-5.6875 h 20.80859 l 5.6875,5.6875 h 5.61719 l 5.6875,-5.6875 h 16.99218 l 5.6875,5.6875 h 5.6875 l 5.69141,-5.6875 z m 0,0"
         id="path76" /><path
         fill-rule="evenodd"
         fill="#000000"
         fill-opacity="1"
         d="m 176.98295,179.43305 -17.35156,51.62109 h 5.90234 l -5.61719,16.41797 h -33.98437 l 16.99219,-50.97656 h -5.6875 z m -39.74609,17.0625 5.6875,-17.0625 h 34.05859"
         id="path78" /><path
         fill="none"
         stroke-width="0.216"
         stroke-linecap="butt"
         stroke-linejoin="miter"
         stroke="#000000"
         stroke-opacity="1"
         stroke-miterlimit="2.6131"
         d="m 176.98295,179.43305 -17.35156,51.62109 h 5.90234 l -5.61718,16.41797 h -33.98438 l 16.99219,-50.97656 h -5.6875 z m -39.74609,17.0625 5.6875,-17.0625 h 34.05859 z m 0,0"
         id="path80" /><path
         fill-rule="evenodd"
         fill="#cccccc"
         fill-opacity="1"
         d="m 156.17436,241.78461 1.87109,-5.61719 h -5.6875 l 17.0625,-51.04687 h -23.61328 l -1.94531,5.6875 h 6.625 l -16.99219,50.97656 h 22.67969"
         id="path82" /><path
         fill="none"
         stroke-width="0.216"
         stroke-linecap="butt"
         stroke-linejoin="miter"
         stroke="#000000"
         stroke-opacity="1"
         stroke-miterlimit="2.6131"
         d="m 156.17436,241.78461 1.87109,-5.61719 h -5.6875 l 17.0625,-51.04687 h -23.61328 l -1.94531,5.6875 h 6.625 l -16.99219,50.97656 z m 0,0"
         id="path84" /><path
         fill-rule="evenodd"
         fill="#cccccc"
         fill-opacity="1"
         d="m 175.03764,168.12836 3.8164,-11.375 -1.87109,-2.80859 h -11.37891 l -3.74218,2.80859 -3.81641,11.375 1.94531,2.8086 h 11.375 l 3.67188,-2.8086"
         id="path86" /><path
         fill="none"
         stroke-width="0.216"
         stroke-linecap="butt"
         stroke-linejoin="miter"
         stroke="#000000"
         stroke-opacity="1"
         stroke-miterlimit="2.6131"
         d="m 175.03764,168.12836 3.81641,-11.375 -1.8711,-2.80859 h -11.3789 l -3.74219,2.80859 -3.81641,11.375 1.94531,2.8086 h 11.375 z m 0,0"
         id="path88" /><path
         id="path493"
         d="m 145.12105,3.3517574 -14.35902,15.0429896 -3.64332,-3.13068 -95.14506,0.02453 -10.24594,10.5368 0.37859,24.25036 10.12472,9.92392 4.706,-0.04864 -0.02241,53.431473 -33.6136695,34.90854 33.8076695,34.16602 0.11766,69.49491 12.77848,9.39412 30.239326,-0.0947 17.450365,-17.98769 47.426609,47.20537 40.56564,-40.57937 10.42203,-0.13637 7.39281,-19.54167 -3.97151,-0.0748 6.69806,-19.83184 4.79591,0.0223 -14.91527,39.42603 36.90537,0.18453 7.40725,-21.24456 -3.90727,-0.0642 6.25517,-18.44229 4.33843,-0.024 -14.09358,39.77503 39.04372,0.0115 7.34747,-21.13608 h -5.70287 l 11.49623,-38.26654 -8.56725,-13.53124 -17.94011,0.0228 31.53774,-31.77188 -50.09943,-49.416181 44.49212,-45.632922 -0.20078,-24.97419 -9.6044,-9.82358 -93.93351,-0.07841 -10.80655,9.81509 0.0353,2.3864 z"
         style="fill:none;stroke:#ffffff;stroke-width:4.72441;stroke-dasharray:none;stroke-opacity:1"
         sodipodi:nodetypes="cccccccccccccccccccccccccccccccccccccccccccc" /></g></g></svg>
